<svg width="375" height="114" viewBox="0 0 375 114" fill="none" xmlns="http://www.w3.org/2000/svg">
<g clip-path="url(#clip0_62_29)">
<path d="M49.4092 21.0562C49.4092 21.0194 49.4092 20.9827 49.4092 20.9482C49.4092 19.8763 48.9834 18.8482 48.2254 18.0902C47.4675 17.3323 46.4394 16.9064 45.3675 16.9064C45.2825 16.9064 45.1998 16.9064 45.1147 16.9064C45.4908 16.2431 45.6865 15.4929 45.6825 14.7304C45.6785 13.968 45.4749 13.2198 45.0919 12.5605C44.7089 11.9012 44.1599 11.3537 43.4995 10.9725C42.8392 10.5913 42.0905 10.3897 41.328 10.3877C41.1012 10.3882 40.8746 10.4051 40.6502 10.4383C40.8805 9.50317 40.8462 8.52243 40.551 7.60574C40.2557 6.68905 39.7113 5.87257 38.9786 5.24761C38.2459 4.62266 37.3537 4.21388 36.4019 4.06698C35.4502 3.92009 34.4763 4.04089 33.5892 4.41585C33.0909 3.15596 32.1697 2.10878 30.9835 1.45402C29.7974 0.799259 28.4203 0.577745 27.0887 0.827495C25.7571 1.07724 24.5539 1.78268 23.6856 2.82275C22.8173 3.86282 22.3381 5.17266 22.3302 6.52749C21.6759 5.75264 20.7749 5.22659 19.7785 5.03774C18.782 4.84888 17.751 5.00872 16.8585 5.4904C15.966 5.97208 15.2665 6.74625 14.8775 7.68283C14.4886 8.61942 14.4338 9.66135 14.7224 10.6336C14.2226 9.71977 13.4043 9.02164 12.4232 8.67208C11.4421 8.32251 10.3667 8.34593 9.40177 8.73788C8.43681 9.12982 7.64967 9.86292 7.1902 10.7976C6.73072 11.7323 6.631 12.8033 6.91002 13.8068C6.28068 13.8391 5.67547 14.0594 5.17252 14.439C4.66956 14.8187 4.29193 15.3404 4.08837 15.9368C3.47783 14.9549 2.51522 14.2435 1.39745 13.9479C0.279675 13.6523 -0.908791 13.795 -1.92485 14.3467C-1.94317 13.4518 -2.25874 12.5884 -2.82184 11.8926C-3.38494 11.1967 -4.16355 10.708 -5.03499 10.5035C-5.90644 10.2989 -6.82117 10.3901 -7.63508 10.7627C-8.44898 11.1353 -9.11578 11.7681 -9.53041 12.5614C-10.1453 12.0776 -10.8841 11.7768 -11.6621 11.6934C-12.44 11.6099 -13.2258 11.7473 -13.9293 12.0897C-14.6328 12.4321 -15.2257 12.9657 -15.64 13.6295C-16.0543 14.2932 -16.2734 15.0602 -16.272 15.8426C-16.2724 15.9884 -16.2648 16.1342 -16.249 16.2792C-16.6679 16.4889 -17.0351 16.7889 -17.3241 17.1575C-17.6132 17.5261 -17.8171 17.9541 -17.921 18.4109C-18.0249 18.8677 -18.0263 19.3418 -17.9252 19.7992C-17.824 20.2566 -17.6227 20.6859 -17.3359 21.0562H49.4092Z" fill="white"/>
</g>
<g clip-path="url(#clip1_62_29)">
<path d="M153.038 53.9141C153.038 53.8773 153.038 53.8405 153.038 53.8061C153.038 52.7341 152.612 51.7061 151.854 50.9481C151.096 50.1901 150.068 49.7643 148.996 49.7643C148.911 49.7643 148.828 49.7643 148.743 49.7643C149.119 49.101 149.315 48.3508 149.311 47.5883C149.307 46.8258 149.103 46.0777 148.72 45.4184C148.337 44.7591 147.788 44.2116 147.128 43.8304C146.468 43.4492 145.719 43.2476 144.957 43.2456C144.73 43.2461 144.503 43.263 144.279 43.2962C144.509 42.361 144.475 41.3803 144.18 40.4636C143.884 39.5469 143.34 38.7304 142.607 38.1055C141.874 37.4805 140.982 37.0718 140.03 36.9249C139.079 36.778 138.105 36.8988 137.218 37.2737C136.719 36.0138 135.798 34.9667 134.612 34.3119C133.426 33.6571 132.049 33.4356 130.717 33.6854C129.386 33.9351 128.182 34.6406 127.314 35.6806C126.446 36.7207 125.967 38.0305 125.959 39.3854C125.304 38.6105 124.403 38.0845 123.407 37.8956C122.411 37.7068 121.38 37.8666 120.487 38.3483C119.595 38.83 118.895 39.6041 118.506 40.5407C118.117 41.4773 118.062 42.5192 118.351 43.4915C117.851 42.5777 117.033 41.8795 116.052 41.53C115.071 41.1804 113.995 41.2038 113.03 41.5958C112.065 41.9877 111.278 42.7208 110.819 43.6555C110.359 44.5902 110.26 45.6612 110.539 46.6646C109.909 46.697 109.304 46.9172 108.801 47.2969C108.298 47.6766 107.92 48.1983 107.717 48.7947C107.106 47.8128 106.144 47.1014 105.026 46.8058C103.908 46.5102 102.72 46.6529 101.704 47.2046C101.685 46.3097 101.37 45.4463 100.807 44.7504C100.244 44.0546 99.465 43.5659 98.5935 43.3613C97.7221 43.1568 96.8074 43.248 95.9935 43.6206C95.1796 43.9932 94.5128 44.626 94.0981 45.4193C93.4832 44.9355 92.7445 44.6347 91.9665 44.5512C91.1885 44.4678 90.4028 44.6052 89.6993 44.9476C88.9957 45.29 88.4029 45.8236 87.9885 46.4873C87.5742 47.151 87.3552 47.918 87.3565 48.7005C87.3561 48.8463 87.3638 48.992 87.3795 49.137C86.9607 49.3468 86.5935 49.6468 86.3044 50.0154C86.0153 50.384 85.8115 50.812 85.7076 51.2688C85.6036 51.7256 85.6022 52.1997 85.7034 52.6571C85.8045 53.1144 86.0058 53.5437 86.2927 53.9141H153.038Z" fill="white"/>
</g>
<g clip-path="url(#clip2_62_29)">
<path d="M374.576 98.725C374.793 97.8677 374.732 96.9636 374.401 96.1434C374.071 95.3231 373.488 94.6291 372.737 94.1616C373.05 93.1535 373.038 92.073 372.706 91.0715C372.373 90.07 371.735 89.1979 370.881 88.5774C370.027 87.9568 369.001 87.619 367.946 87.6113C366.89 87.6036 365.859 87.9264 364.996 88.5344C364.484 88.0892 363.86 87.7908 363.192 87.6708C362.524 87.5507 361.835 87.6135 361.2 87.8524C360.564 88.0914 360.005 88.4976 359.581 89.0282C359.157 89.5587 358.885 90.194 358.792 90.8666C358.382 91.0531 358.017 91.3276 357.724 91.6709C357.148 91.1848 356.461 90.849 355.724 90.6934C354.987 90.5378 354.222 90.5673 353.499 90.7792C352.776 90.9911 352.117 91.3788 351.58 91.9077C351.044 92.4366 350.646 93.0902 350.424 93.8101C350.357 93.8101 350.288 93.8101 350.219 93.8101C349.743 93.8099 349.272 93.915 348.841 94.118C348.179 93.6798 347.373 93.5161 346.593 93.6615C345.813 93.8069 345.12 94.2499 344.661 94.8969C344.384 93.9979 343.902 93.1754 343.253 92.4941C342.604 91.8127 341.806 91.291 340.922 90.9699C340.038 90.6489 339.091 90.5372 338.156 90.6437C337.221 90.7501 336.324 91.0718 335.535 91.5835C334.764 89.7076 333.38 88.1486 331.608 87.1613C329.836 86.1741 327.782 85.8169 325.782 86.1482C323.781 86.4796 321.952 87.4798 320.593 88.9855C319.234 90.4911 318.426 92.4131 318.301 94.4374C316.367 95.2566 314.829 96.7982 314.014 98.7341L374.576 98.725Z" fill="white"/>
</g>
<g clip-path="url(#clip3_62_29)">
<path d="M320.774 53.9141C320.774 53.8773 320.774 53.8405 320.774 53.8061C320.774 52.7341 320.348 51.7061 319.59 50.9481C318.832 50.1901 317.804 49.7643 316.732 49.7643C316.647 49.7643 316.564 49.7643 316.479 49.7643C316.855 49.101 317.051 48.3508 317.047 47.5883C317.043 46.8258 316.839 46.0777 316.456 45.4184C316.073 44.7591 315.524 44.2116 314.864 43.8304C314.204 43.4492 313.455 43.2476 312.693 43.2456C312.466 43.2461 312.239 43.263 312.015 43.2962C312.245 42.361 312.211 41.3803 311.915 40.4636C311.62 39.5469 311.076 38.7304 310.343 38.1055C309.61 37.4805 308.718 37.0718 307.766 36.9249C306.815 36.778 305.841 36.8988 304.954 37.2737C304.455 36.0138 303.534 34.9667 302.348 34.3119C301.162 33.6571 299.785 33.4356 298.453 33.6854C297.122 33.9351 295.918 34.6406 295.05 35.6806C294.182 36.7207 293.703 38.0305 293.695 39.3854C293.04 38.6105 292.139 38.0845 291.143 37.8956C290.147 37.7068 289.115 37.8666 288.223 38.3483C287.331 38.83 286.631 39.6041 286.242 40.5407C285.853 41.4773 285.798 42.5192 286.087 43.4915C285.587 42.5777 284.769 41.8795 283.788 41.53C282.807 41.1804 281.731 41.2038 280.766 41.5958C279.801 41.9877 279.014 42.7208 278.555 43.6555C278.095 44.5902 277.996 45.6612 278.275 46.6646C277.645 46.697 277.04 46.9172 276.537 47.2969C276.034 47.6766 275.656 48.1983 275.453 48.7947C274.842 47.8128 273.88 47.1014 272.762 46.8058C271.644 46.5102 270.456 46.6529 269.44 47.2046C269.421 46.3097 269.106 45.4463 268.543 44.7504C267.98 44.0546 267.201 43.5659 266.33 43.3613C265.458 43.1568 264.543 43.248 263.729 43.6206C262.916 43.9932 262.249 44.626 261.834 45.4193C261.219 44.9355 260.48 44.6347 259.702 44.5512C258.924 44.4678 258.139 44.6052 257.435 44.9476C256.732 45.29 256.139 45.8236 255.725 46.4873C255.31 47.151 255.091 47.918 255.092 48.7005C255.092 48.8463 255.1 48.992 255.115 49.137C254.697 49.3468 254.329 49.6468 254.04 50.0154C253.751 50.384 253.547 50.812 253.444 51.2688C253.34 51.7256 253.338 52.1997 253.439 52.6571C253.541 53.1144 253.742 53.5437 254.029 53.9141H320.774Z" fill="white"/>
</g>
<g clip-path="url(#clip4_62_29)">
<path d="M419.948 29.4199C419.948 29.4013 419.948 29.3802 419.948 29.3616C419.948 27.9552 419.556 26.5767 418.818 25.3804C418.079 24.1841 417.022 23.2174 415.765 22.5884C414.509 21.9595 413.102 21.6932 411.703 21.8194C410.304 21.9455 408.967 22.4592 407.843 23.3028C406.689 22.4644 405.33 21.9528 403.91 21.8218C402.489 21.6908 401.06 21.9452 399.772 22.5584C399.098 21.6697 398.238 20.9402 397.251 20.4216C396.265 19.903 395.176 19.6079 394.063 19.5573C392.95 19.5068 391.84 19.702 390.81 20.129C389.781 20.5561 388.858 21.2046 388.107 22.0286C386.784 21.4678 385.335 21.2766 383.913 21.4754C382.49 21.6741 381.148 22.2553 380.03 23.1571C378.798 22.3961 377.403 21.938 375.96 21.8203C374.516 21.7025 373.066 21.9285 371.727 22.4797C370.387 23.0309 369.198 23.8916 368.255 24.9915C367.311 26.0914 366.642 27.3992 366.301 28.8079C364.721 29.509 363.469 30.7875 362.8 32.382C362.13 33.9765 362.095 35.7668 362.7 37.3868C363.305 39.0068 364.505 40.3342 366.056 41.0978C367.606 41.8614 369.389 42.0035 371.04 41.495C371.568 42.1227 372.225 42.6299 372.965 42.9826C373.705 43.3353 374.512 43.5254 375.332 43.5399C376.152 43.5545 376.965 43.3932 377.718 43.067C378.47 42.7408 379.144 42.2572 379.694 41.6487C380.458 42.1387 381.361 42.3659 382.265 42.2956C383.17 42.2253 384.027 41.8614 384.706 41.2592C385.206 41.9535 385.852 42.529 386.599 42.945C387.346 43.361 388.176 43.6072 389.029 43.6661C389.881 43.725 390.737 43.5952 391.534 43.2859C392.331 42.9766 393.05 42.4954 393.64 41.8765C394.672 42.2677 395.809 42.2724 396.844 41.8897C397.878 41.507 398.74 40.7628 399.269 39.7942C399.572 40.557 400.088 41.2163 400.755 41.6934C401.422 42.1705 402.212 42.4452 403.031 42.4846C403.85 42.524 404.663 42.3265 405.373 41.9156C406.083 41.5047 406.659 40.8979 407.034 40.1678C407.604 40.9511 408.361 41.5786 409.237 41.9925C410.112 42.4063 411.078 42.5934 412.044 42.5364C413.011 42.4794 413.948 42.1803 414.769 41.6664C415.59 41.1526 416.269 40.4405 416.743 39.5955C417.441 39.9457 418.206 40.1402 418.986 40.1654C419.766 40.1906 420.543 40.046 421.262 39.7415C421.98 39.4371 422.625 38.9801 423.15 38.4021C423.675 37.8241 424.069 37.1388 424.304 36.3937C424.539 35.6485 424.609 34.8612 424.51 34.0861C424.412 33.311 424.146 32.5666 423.732 31.9043C423.318 31.242 422.765 30.6776 422.112 30.25C421.458 29.8224 420.72 29.5419 419.948 29.4278V29.4199Z" fill="white"/>
</g>
<g clip-path="url(#clip5_62_29)">
<path d="M83.4757 113.614C83.6927 112.757 83.6315 111.853 83.3011 111.033C82.9707 110.212 82.3881 109.518 81.6375 109.051C81.9497 108.043 81.9385 106.962 81.6056 105.961C81.2726 104.959 80.6346 104.087 79.781 103.467C78.9273 102.846 77.9009 102.508 76.8456 102.501C75.7902 102.493 74.759 102.816 73.8964 103.424C73.3837 102.979 72.7602 102.68 72.0919 102.56C71.4236 102.44 70.7352 102.503 70.0996 102.742C69.4641 102.981 68.9048 103.387 68.4811 103.918C68.0574 104.448 67.7849 105.083 67.6924 105.756C67.2816 105.942 66.9168 106.217 66.624 106.56C66.0482 106.074 65.361 105.738 64.6238 105.583C63.8866 105.427 63.1223 105.457 62.3993 105.669C61.6762 105.88 61.0169 106.268 60.4803 106.797C59.9436 107.326 59.5464 107.98 59.324 108.699C59.2574 108.699 59.1884 108.699 59.1195 108.699C58.6429 108.699 58.1721 108.804 57.7409 109.007C57.0794 108.569 56.2734 108.405 55.4934 108.551C54.7134 108.696 54.0205 109.139 53.5612 109.786C53.2839 108.887 52.8019 108.065 52.1531 107.383C51.5043 106.702 50.7065 106.18 49.8221 105.859C48.9378 105.538 47.991 105.427 47.0562 105.533C46.1215 105.639 45.2241 105.961 44.4346 106.473C43.6638 104.597 42.2796 103.038 40.508 102.051C38.7365 101.063 36.6824 100.706 34.6816 101.038C32.6808 101.369 30.8515 102.369 29.4928 103.875C28.1341 105.38 27.3263 107.302 27.2014 109.327C25.2672 110.146 23.7289 111.688 22.9138 113.623L83.4757 113.614Z" fill="white"/>
</g>
<defs>
<clipPath id="clip0_62_29">
<rect width="67.4161" height="20.3489" fill="white" transform="translate(-18 0.707306)"/>
</clipPath>
<clipPath id="clip1_62_29">
<rect width="67.4161" height="20.3489" fill="white" transform="translate(85.6285 33.5651)"/>
</clipPath>
<clipPath id="clip2_62_29">
<rect width="60.702" height="12.725" fill="white" transform="translate(314 86)"/>
</clipPath>
<clipPath id="clip3_62_29">
<rect width="67.4161" height="20.3489" fill="white" transform="translate(253.365 33.5651)"/>
</clipPath>
<clipPath id="clip4_62_29">
<rect width="62.2691" height="24.1264" fill="white" transform="translate(362.278 19.5489)"/>
</clipPath>
<clipPath id="clip5_62_29">
<rect width="60.702" height="12.725" fill="white" transform="translate(22.9 100.889)"/>
</clipPath>
</defs>
</svg>
