<svg width="375" height="487" viewBox="0 0 375 487" fill="none" xmlns="http://www.w3.org/2000/svg">
<path d="M371.435 5.06324C331.168 12.9782 299.89 29.4483 275.702 47.6082C248.647 68.1201 228.838 91.0128 217.218 115.196C195.032 160.943 201.715 210.851 162.668 254.25C144.078 274.936 115.175 292.295 82.5742 307.218C11.3342 339.696 -85.2469 362.356 -60.9914 422.171C-54.9498 436.246 -41.9942 449.248 -23.41 459.887C-4.82575 470.526 18.7411 478.433 44.9526 482.823C111.647 493.495 182.344 479.87 250.633 472.489C305.521 466.548 362.853 464.538 413.704 452.212C478.465 436.525 523.686 406.27 560.052 375.091C595.536 344.658 642.046 316.396 652.867 280.005C656.433 266.83 657.682 253.511 656.599 240.217C655.853 226.557 654.224 212.897 652.087 199.308C648.301 172.686 641.321 146.215 631.19 120.052C621.793 96.8231 607.884 73.8075 583.968 53.4066C561.612 34.3929 529.927 18.4208 491.051 8.94065C453.633 -0.0236747 410.549 -2.62047 371.435 5.06324Z" fill="url(#paint0_linear_44_49)"/>
<defs>
<linearGradient id="paint0_linear_44_49" x1="289.424" y1="181.857" x2="123.451" y2="433.886" gradientUnits="userSpaceOnUse">
<stop offset="0.0102638" stop-color="#F2DCB4"/>
<stop offset="1" stop-color="#FFF2DA" stop-opacity="0"/>
</linearGradient>
</defs>
</svg>
