<svg width="375" height="105" viewBox="0 0 375 105" fill="none" xmlns="http://www.w3.org/2000/svg">
<g clip-path="url(#clip0_73_61)">
<path d="M154.586 84.2853C154.803 83.4281 154.742 82.524 154.412 81.7037C154.081 80.8835 153.499 80.1895 152.748 79.722C153.06 78.7139 153.049 77.6333 152.716 76.6319C152.383 75.6304 151.745 74.7583 150.892 74.1377C150.038 73.5172 149.012 73.1794 147.956 73.1717C146.901 73.164 145.87 73.4868 145.007 74.0948C144.494 73.6496 143.871 73.3512 143.203 73.2311C142.534 73.1111 141.846 73.1739 141.21 73.4128C140.575 73.6517 140.016 74.058 139.592 74.5885C139.168 75.1191 138.896 75.7543 138.803 76.427C138.392 76.6134 138.028 76.888 137.735 77.2312C137.159 76.7452 136.472 76.4094 135.735 76.2538C134.997 76.0982 134.233 76.1277 133.51 76.3395C132.787 76.5514 132.128 76.9391 131.591 77.468C131.054 77.9969 130.657 78.6505 130.435 79.3704C130.368 79.3704 130.299 79.3704 130.23 79.3704C129.754 79.3703 129.283 79.4754 128.852 79.6783C128.19 79.2402 127.384 79.0765 126.604 79.2219C125.824 79.3672 125.131 79.8103 124.672 80.4573C124.395 79.5583 123.913 78.7358 123.264 78.0544C122.615 77.3731 121.817 76.8514 120.933 76.5303C120.048 76.2093 119.102 76.0976 118.167 76.204C117.232 76.3105 116.335 76.6322 115.545 77.1439C114.775 75.268 113.39 73.709 111.619 72.7217C109.847 71.7344 107.793 71.3773 105.792 71.7086C103.792 72.0399 101.962 73.0402 100.604 74.5458C99.2448 76.0515 98.437 77.9735 98.3121 79.9977C96.3779 80.817 94.8397 82.3585 94.0245 84.2945L154.586 84.2853Z" fill="white"/>
</g>
<g clip-path="url(#clip1_73_61)">
<path d="M338.076 22.5314C338.076 22.4946 338.076 22.4578 338.076 22.4234C338.076 21.3514 337.65 20.3234 336.892 19.5654C336.134 18.8074 335.106 18.3816 334.034 18.3816C333.949 18.3816 333.866 18.3816 333.781 18.3816C334.157 17.7183 334.353 16.9681 334.349 16.2056C334.345 15.4431 334.141 14.695 333.758 14.0357C333.375 13.3764 332.827 12.8289 332.166 12.4477C331.506 12.0665 330.757 11.8649 329.995 11.8629C329.768 11.8634 329.541 11.8803 329.317 11.9135C329.547 10.9784 329.513 9.99761 329.218 9.08092C328.922 8.16424 328.378 7.34775 327.645 6.72279C326.912 6.09784 326.02 5.68906 325.069 5.54217C324.117 5.39527 323.143 5.51607 322.256 5.89104C321.758 4.63114 320.836 3.58396 319.65 2.9292C318.464 2.27444 317.087 2.05293 315.755 2.30268C314.424 2.55243 313.22 3.25786 312.352 4.29793C311.484 5.338 311.005 6.64784 310.997 8.00267C310.343 7.22782 309.441 6.70178 308.445 6.51292C307.449 6.32406 306.418 6.4839 305.525 6.96558C304.633 7.44726 303.933 8.22143 303.544 9.15801C303.155 10.0946 303.1 11.1365 303.389 12.1088C302.889 11.195 302.071 10.4968 301.09 10.1473C300.109 9.7977 299.033 9.82112 298.068 10.2131C297.103 10.605 296.316 11.3381 295.857 12.2728C295.397 13.2075 295.298 14.2785 295.577 15.282C294.947 15.3143 294.342 15.5345 293.839 15.9142C293.336 16.2939 292.959 16.8156 292.755 17.412C292.144 16.4301 291.182 15.7187 290.064 15.4231C288.946 15.1275 287.758 15.2702 286.742 15.8219C286.723 14.927 286.408 14.0636 285.845 13.3677C285.282 12.6719 284.503 12.1832 283.632 11.9786C282.76 11.7741 281.845 11.8653 281.032 12.2379C280.218 12.6105 279.551 13.2433 279.136 14.0366C278.521 13.5528 277.783 13.252 277.005 13.1685C276.227 13.0851 275.441 13.2225 274.737 13.5649C274.034 13.9073 273.441 14.4409 273.027 15.1046C272.612 15.7684 272.393 16.5353 272.395 17.3178C272.394 17.4636 272.402 17.6093 272.418 17.7543C271.999 17.9641 271.632 18.2641 271.342 18.6327C271.053 19.0013 270.85 19.4293 270.746 19.8861C270.642 20.3429 270.64 20.817 270.741 21.2744C270.843 21.7317 271.044 22.161 271.331 22.5314H338.076Z" fill="white"/>
</g>
<g clip-path="url(#clip2_73_61)">
<path d="M105.448 21.2204C105.448 21.1836 105.448 21.1469 105.448 21.1124C105.448 20.0405 105.022 19.0124 104.264 18.2544C103.506 17.4965 102.478 17.0707 101.406 17.0707C101.321 17.0707 101.238 17.0707 101.153 17.0707C101.529 16.4073 101.725 15.6571 101.721 14.8946C101.717 14.1322 101.513 13.3841 101.13 12.7247C100.747 12.0654 100.198 11.5179 99.538 11.1367C98.8777 10.7555 98.129 10.5539 97.3665 10.5519C97.1396 10.5524 96.9131 10.5693 96.6887 10.6025C96.919 9.66738 96.8846 8.68663 96.5894 7.76995C96.2942 6.85326 95.7498 6.03678 95.017 5.41182C94.2843 4.78686 93.3922 4.37808 92.4404 4.23119C91.4886 4.0843 90.5147 4.20509 89.6277 4.58006C89.1294 3.32017 88.2081 2.27299 87.022 1.61823C85.8358 0.963466 84.4588 0.741953 83.1272 0.991703C81.7955 1.24145 80.5923 1.94689 79.7241 2.98696C78.8558 4.02702 78.3766 5.33687 78.3687 6.6917C77.7144 5.91685 76.8133 5.3908 75.8169 5.20195C74.8205 5.01309 73.7894 5.17293 72.897 5.65461C72.0045 6.13629 71.305 6.91045 70.916 7.84704C70.527 8.78363 70.4722 9.82556 70.7608 10.7978C70.2611 9.88398 69.4428 9.18585 68.4617 8.83628C67.4806 8.48672 66.4052 8.51014 65.4402 8.90209C64.4753 9.29403 63.6881 10.0271 63.2286 10.9618C62.7692 11.8965 62.6695 12.9675 62.9485 13.971C62.3191 14.0033 61.7139 14.2236 61.211 14.6032C60.708 14.9829 60.3304 15.5046 60.1268 16.101C59.5163 15.1192 58.5537 14.4077 57.4359 14.1121C56.3181 13.8165 55.1297 13.9592 54.1136 14.511C54.0953 13.616 53.7797 12.7526 53.2166 12.0568C52.6535 11.3609 51.8749 10.8722 51.0035 10.6677C50.132 10.4631 49.2173 10.5543 48.4034 10.9269C47.5895 11.2995 46.9227 11.9323 46.508 12.7256C45.8931 12.2418 45.1544 11.941 44.3764 11.8576C43.5984 11.7741 42.8127 11.9115 42.1092 12.2539C41.4057 12.5963 40.8128 13.1299 40.3985 13.7937C39.9841 14.4574 39.7651 15.2244 39.7664 16.0068C39.766 16.1526 39.7737 16.2984 39.7894 16.4434C39.3706 16.6531 39.0034 16.9531 38.7143 17.3217C38.4252 17.6903 38.2214 18.1184 38.1175 18.5751C38.0135 19.0319 38.0121 19.506 38.1133 19.9634C38.2145 20.4208 38.4157 20.8501 38.7026 21.2204H105.448Z" fill="white"/>
</g>
<g clip-path="url(#clip3_73_61)">
<path d="M49.4615 71.5605C49.4615 71.5237 49.4615 71.487 49.4615 71.4525C49.4615 70.3805 49.0357 69.3525 48.2777 68.5945C47.5197 67.8366 46.4917 67.4107 45.4198 67.4107C45.3347 67.4107 45.252 67.4107 45.167 67.4107C45.543 66.7474 45.7388 65.9972 45.7348 65.2347C45.7307 64.4723 45.5271 63.7241 45.1441 63.0648C44.7611 62.4055 44.2121 61.858 43.5518 61.4768C42.8914 61.0956 42.1428 60.894 41.3803 60.892C41.1534 60.8925 40.9269 60.9094 40.7025 60.9426C40.9328 60.0075 40.8984 59.0267 40.6032 58.11C40.308 57.1933 39.7636 56.3769 39.0308 55.7519C38.2981 55.127 37.406 54.7182 36.4542 54.5713C35.5024 54.4244 34.5285 54.5452 33.6415 54.9202C33.1432 53.6603 32.2219 52.6131 31.0358 51.9583C29.8496 51.3036 28.4726 51.082 27.141 51.3318C25.8093 51.5815 24.6061 52.287 23.7379 53.327C22.8696 54.3671 22.3904 55.677 22.3825 57.0318C21.7282 56.2569 20.8271 55.7309 19.8307 55.542C18.8343 55.3532 17.8032 55.513 16.9108 55.9947C16.0183 56.4764 15.3188 57.2505 14.9298 58.1871C14.5408 59.1237 14.486 60.1656 14.7746 61.1379C14.2749 60.2241 13.4566 59.5259 12.4755 59.1764C11.4944 58.8268 10.419 58.8502 9.45401 59.2422C8.48906 59.6341 7.70191 60.3672 7.24244 61.3019C6.78297 62.2366 6.68325 63.3076 6.96226 64.3111C6.33292 64.3434 5.72772 64.5637 5.22476 64.9433C4.72181 65.323 4.34418 65.8447 4.14062 66.4411C3.53008 65.4592 2.56747 64.7478 1.4497 64.4522C0.331921 64.1566 -0.856544 64.2993 -1.8726 64.851C-1.89093 63.9561 -2.2065 63.0927 -2.7696 62.3969C-3.33269 61.701 -4.1113 61.2123 -4.98275 61.0078C-5.85419 60.8032 -6.76893 60.8944 -7.58283 61.267C-8.39673 61.6396 -9.06353 62.2724 -9.47816 63.0657C-10.0931 62.5819 -10.8318 62.2811 -11.6098 62.1977C-12.3878 62.1142 -13.1735 62.2516 -13.877 62.594C-14.5805 62.9364 -15.1734 63.47 -15.5877 64.1337C-16.0021 64.7975 -16.2211 65.5645 -16.2198 66.3469C-16.2202 66.4927 -16.2125 66.6385 -16.1968 66.7835C-16.6156 66.9932 -16.9828 67.2932 -17.2719 67.6618C-17.561 68.0304 -17.7648 68.4584 -17.8687 68.9152C-17.9727 69.372 -17.9741 69.8461 -17.8729 70.3035C-17.7718 70.7609 -17.5705 71.1902 -17.2836 71.5605H49.4615Z" fill="white"/>
</g>
<g clip-path="url(#clip4_73_61)">
<path d="M397.143 104.643C397.143 104.607 397.143 104.57 397.143 104.535C397.143 103.464 396.717 102.436 395.959 101.678C395.201 100.92 394.173 100.494 393.101 100.494C393.016 100.494 392.933 100.494 392.848 100.494C393.224 99.8304 393.42 99.0802 393.416 98.3177C393.412 97.5553 393.208 96.8071 392.826 96.1478C392.443 95.4885 391.894 94.941 391.233 94.5598C390.573 94.1786 389.824 93.977 389.062 93.975C388.835 93.9755 388.608 93.9924 388.384 94.0256C388.614 93.0905 388.58 92.1097 388.285 91.193C387.989 90.2763 387.445 89.4599 386.712 88.8349C385.98 88.21 385.087 87.8012 384.136 87.6543C383.184 87.5074 382.21 87.6282 381.323 88.0032C380.825 86.7433 379.903 85.6961 378.717 85.0413C377.531 84.3866 376.154 84.165 374.822 84.4148C373.491 84.6645 372.288 85.37 371.419 86.41C370.551 87.4501 370.072 88.76 370.064 90.1148C369.41 89.3399 368.509 88.8139 367.512 88.625C366.516 88.4362 365.485 88.596 364.592 89.0777C363.7 89.5594 363 90.3335 362.611 91.2701C362.222 92.2067 362.167 93.2486 362.456 94.2209C361.956 93.3071 361.138 92.6089 360.157 92.2594C359.176 91.9098 358.1 91.9332 357.135 92.3252C356.17 92.7171 355.383 93.4502 354.924 94.3849C354.464 95.3196 354.365 96.3906 354.644 97.3941C354.014 97.4264 353.409 97.6467 352.906 98.0263C352.403 98.406 352.026 98.9277 351.822 99.5241C351.211 98.5422 350.249 97.8308 349.131 97.5352C348.013 97.2396 346.825 97.3823 345.809 97.934C345.79 97.0391 345.475 96.1757 344.912 95.4799C344.349 94.784 343.57 94.2953 342.699 94.0908C341.827 93.8862 340.912 93.9774 340.099 94.35C339.285 94.7226 338.618 95.3554 338.203 96.1487C337.588 95.6649 336.85 95.3641 336.072 95.2807C335.294 95.1972 334.508 95.3346 333.804 95.677C333.101 96.0194 332.508 96.553 332.094 97.2167C331.679 97.8805 331.46 98.6475 331.462 99.4299C331.461 99.5757 331.469 99.7215 331.485 99.8665C331.066 100.076 330.699 100.376 330.409 100.745C330.12 101.113 329.917 101.541 329.813 101.998C329.709 102.455 329.707 102.929 329.808 103.386C329.91 103.844 330.111 104.273 330.398 104.643H397.143Z" fill="white"/>
</g>
<defs>
<clipPath id="clip0_73_61">
<rect width="60.702" height="12.725" fill="white" transform="translate(94.0107 71.5604)"/>
</clipPath>
<clipPath id="clip1_73_61">
<rect width="67.4161" height="20.3489" fill="white" transform="translate(270.667 2.18237)"/>
</clipPath>
<clipPath id="clip2_73_61">
<rect width="67.4161" height="20.3489" fill="white" transform="translate(38.0386 0.871399)"/>
</clipPath>
<clipPath id="clip3_73_61">
<rect width="67.4161" height="20.3489" fill="white" transform="translate(-17.9476 51.2115)"/>
</clipPath>
<clipPath id="clip4_73_61">
<rect width="67.4161" height="20.3489" fill="white" transform="translate(329.734 84.2945)"/>
</clipPath>
</defs>
</svg>
