<svg width="105" height="10" viewBox="0 0 105 10" fill="none" xmlns="http://www.w3.org/2000/svg">
<path d="M104.768 4.73017C104.767 5.95854 104.241 7.13651 103.305 8.0051C102.369 8.87369 101.099 9.36178 99.7747 9.36209H5.65335C4.32918 9.36209 3.05922 8.8741 2.12289 8.00544C1.18655 7.13679 0.660522 5.95863 0.660522 4.73017C0.660522 3.5017 1.18655 2.32356 2.12289 1.45491C3.05922 0.586253 4.32918 0.0982435 5.65335 0.0982435H99.7798C100.523 0.0970062 101.258 0.250351 101.929 0.547019C102.362 0.739094 102.763 0.987656 103.12 1.28515C104.09 2.09079 104.682 3.21678 104.768 4.42193C104.768 4.52467 104.768 4.62624 104.768 4.73017Z" fill="#02FCFC"/>
<path d="M104.768 4.73019C104.768 5.33856 104.639 5.94101 104.388 6.50312C104.137 7.06524 103.77 7.57599 103.306 8.00616C102.842 8.43634 102.292 8.7775 101.686 9.01017C101.08 9.24283 100.43 9.36243 99.7747 9.36212H5.65335C4.32928 9.36181 3.05952 8.87371 2.12326 8.00512C1.187 7.13654 0.66086 5.95856 0.660522 4.73019H104.768Z" fill="#00D4E2"/>
<path opacity="0.35" d="M8.27226 0.0983124L1.96059 7.84693C1.61875 7.49909 1.33626 7.1048 1.12292 6.67773L6.48111 0.0983124H8.27226Z" fill="white"/>
<path opacity="0.35" d="M14.2552 0.0983124L6.71254 9.36216H5.64957C5.41788 9.36221 5.18646 9.34722 4.95703 9.31728L12.4679 0.0983124H14.2552Z" fill="white"/>
<path opacity="0.35" d="M20.2473 0.0982819L12.7046 9.36214H10.9135L18.4574 0.0982819H20.2473Z" fill="white"/>
<path opacity="0.35" d="M26.237 0.0982819L18.6917 9.36214H16.9019L24.4446 0.0982819H26.237Z" fill="white"/>
<path opacity="0.35" d="M32.2253 0.0982819L24.68 9.36214H22.8901L30.4341 0.0982819H32.2253Z" fill="white"/>
<path opacity="0.35" d="M38.2125 0.0982819L30.6698 9.36214H28.8787L36.4226 0.0982819H38.2125Z" fill="white"/>
<path opacity="0.35" d="M44.2007 0.0982819L36.658 9.36214H34.8682L42.4109 0.0982819H44.2007Z" fill="white"/>
<path opacity="0.35" d="M50.1904 0.0982819L42.6464 9.36214H40.8566L48.3993 0.0982819H50.1904Z" fill="white"/>
<path opacity="0.35" d="M56.1786 0.0982819L48.6347 9.36214H46.8435L54.3875 0.0982819H56.1786Z" fill="white"/>
<path opacity="0.35" d="M62.167 0.0982819L54.6231 9.36214H52.8319L60.3759 0.0982819H62.167Z" fill="white"/>
<path opacity="0.35" d="M68.1553 0.0982819L60.6113 9.36214H58.8214L66.3641 0.0982819H68.1553Z" fill="white"/>
<path opacity="0.35" d="M74.1437 0.0982819L66.5997 9.36214H64.8098L72.3538 0.0982819H74.1437Z" fill="white"/>
<path opacity="0.35" d="M80.1319 0.0982819L72.5892 9.36214H70.7981L78.3421 0.0982819H80.1319Z" fill="white"/>
<path opacity="0.35" d="M86.1214 0.0982819L78.5761 9.36214H76.7863L84.3289 0.0982819H86.1214Z" fill="white"/>
<path opacity="0.35" d="M92.1097 0.0982819L84.5645 9.36214H82.7746L90.3173 0.0982819H92.1097Z" fill="white"/>
<path opacity="0.35" d="M98.097 0.0982819L90.5543 9.36214H88.7631L96.3071 0.0982819H98.097Z" fill="white"/>
<path opacity="0.35" d="M103.12 1.28521L96.5426 9.36215H94.7527L101.929 0.547073C102.362 0.739148 102.763 0.98771 103.12 1.28521V1.28521Z" fill="white"/>
<path opacity="0.35" d="M104.767 4.73024C104.768 5.79034 104.377 6.81861 103.659 7.64305C102.94 8.46749 101.939 9.03809 100.821 9.25942L104.767 4.422C104.767 4.52475 104.767 4.62631 104.767 4.73024Z" fill="white"/>
</svg>
