<svg width="131" height="23" viewBox="0 0 131 23" fill="none" xmlns="http://www.w3.org/2000/svg">
<g filter="url(#filter0_d_36_163)">
<path d="M3.68255 7.00684C3.68255 6.42017 3.86255 5.88017 4.22255 5.38684C4.68922 4.76017 5.33589 4.40684 6.16255 4.32684C7.44255 4.20684 8.71589 4.27351 9.98255 4.52684C10.6626 4.66017 11.2226 4.72684 11.6626 4.72684C11.9959 4.72684 12.2426 4.67351 12.4026 4.56684C13.1492 4.08684 13.5226 3.49351 13.5226 2.78684C13.5226 2.53351 13.4826 2.25351 13.4026 1.94684C13.2292 1.28017 12.6626 0.86684 11.7026 0.70684C10.6092 0.533507 9.40922 0.42684 8.10255 0.386841C7.06255 0.360173 5.94922 0.420173 4.76255 0.566841C3.58922 0.713507 2.68922 0.933507 2.06255 1.22684C1.14255 1.65351 0.535887 2.32017 0.242554 3.22684V15.1068C0.242554 15.1468 0.24922 15.1868 0.262554 15.2268C0.302554 15.4268 0.355887 16.0468 0.422554 17.0868C0.542554 18.8335 0.92922 19.8668 1.58255 20.1868C1.88922 20.3335 2.42922 20.4002 3.20255 20.3868C4.00255 20.3735 4.58922 20.2135 4.96255 19.9068C5.18922 19.7202 5.30255 19.4135 5.30255 18.9868C5.30255 18.6402 5.24255 18.2335 5.12255 17.7668C4.85589 16.7402 4.72922 15.8068 4.74255 14.9668C4.75589 14.1935 5.30922 13.8268 6.40255 13.8668C6.40255 13.8668 7.52255 13.9335 9.76255 14.0668C10.8959 14.1335 11.6559 13.7735 12.0426 12.9868C12.2292 12.6002 12.3226 12.2268 12.3226 11.8668C12.3226 10.6935 11.5826 10.1068 10.1026 10.1068C9.83589 10.1068 9.62922 10.1135 9.48255 10.1268C8.84255 10.1802 7.64255 10.3068 5.88255 10.5068C5.76255 10.5202 5.60255 10.5268 5.40255 10.5268C4.60255 10.5268 4.12922 10.2402 3.98255 9.66684C3.91589 9.38684 3.86922 9.02684 3.84255 8.58684C3.82922 8.45351 3.80255 8.19351 3.76255 7.80684C3.70922 7.47351 3.68255 7.20684 3.68255 7.00684ZM29.9155 17.2468C29.9155 16.9535 29.8622 16.6802 29.7555 16.4268C29.5022 15.8268 29.2355 14.4935 28.9555 12.4268C28.8089 11.3602 28.7355 10.3268 28.7355 9.32684C28.7355 8.96684 28.7689 8.42684 28.8355 7.70684C28.9022 6.98684 28.9355 6.44684 28.9355 6.08684C28.9355 4.76684 28.3689 4.00684 27.2355 3.80684C27.0755 3.78017 26.9089 3.76684 26.7355 3.76684C25.6955 3.76684 25.1489 4.42684 25.0955 5.74684C25.0822 6.82684 25.0555 8.44684 25.0155 10.6068C24.9755 12.2468 24.8489 13.3802 24.6355 14.0068C24.2355 15.2068 23.4155 15.8068 22.1755 15.8068C20.8689 15.8068 20.1555 15.2868 20.0355 14.2468C19.9422 13.4068 19.9222 11.8468 19.9755 9.56684C20.0155 7.78017 20.0089 6.64017 19.9555 6.14684C19.7689 4.53351 19.2355 3.69351 18.3555 3.62684C16.7955 3.50684 15.9755 4.29351 15.8955 5.98684C15.8022 7.84017 15.8155 9.20017 15.9355 10.0668C15.9889 10.4935 16.0622 11.5868 16.1555 13.3468C16.2355 14.6935 16.3822 15.7802 16.5955 16.6068C16.9022 17.7402 17.6022 18.5735 18.6955 19.1068C19.6155 19.5468 20.7155 19.7335 21.9955 19.6668C23.4489 19.5868 24.6355 19.2935 25.5555 18.7868C26.1689 18.4535 26.4622 18.0602 26.4355 17.6068C26.5689 18.2335 26.9955 18.6668 27.7155 18.9068C27.9822 19.0002 28.2422 19.0468 28.4955 19.0468C28.9489 19.0468 29.3089 18.8535 29.5755 18.4668C29.8022 18.1335 29.9155 17.7268 29.9155 17.2468ZM40.5697 8.58684C41.5297 8.68017 42.1697 8.91351 42.4897 9.28684C42.8231 9.64684 43.0031 10.3135 43.0297 11.2868C43.0564 12.1135 43.0231 13.3668 42.9297 15.0468C42.8631 16.3668 42.9031 17.3468 43.0497 17.9868C43.3164 19.1068 43.9497 19.7202 44.9497 19.8268C46.2031 19.9602 46.9164 19.1468 47.0897 17.3868C47.1031 17.2002 47.1231 16.4735 47.1497 15.2068C47.1764 13.9402 47.1164 12.2002 46.9697 9.98684C46.8097 7.48017 46.1364 5.81351 44.9497 4.98684C44.0964 4.38684 43.1031 4.08684 41.9697 4.08684C41.5831 4.08684 41.1097 4.14017 40.5497 4.24684C38.7897 4.58017 37.6364 5.00017 37.0897 5.50684C37.1297 5.25351 37.1497 5.00017 37.1497 4.74684C37.1497 4.40017 37.1164 4.04017 37.0497 3.66684C36.9031 3.04017 36.4764 2.68684 35.7697 2.60684C34.3964 2.46017 33.5564 2.97351 33.2497 4.14684C33.1031 4.69351 33.1231 5.98684 33.3097 8.02684C33.5231 10.4268 33.6164 11.9135 33.5897 12.4868L33.4297 15.3268C33.3897 16.0335 33.3697 16.6802 33.3697 17.2668C33.3697 18.9068 34.1164 19.7002 35.6097 19.6468C36.9297 19.5935 37.5364 18.4468 37.4297 16.2068C37.3897 15.7268 37.3431 15.0002 37.2897 14.0268C37.2231 12.4402 37.3564 11.2068 37.6897 10.3268C38.1431 9.15351 38.9631 8.56684 40.1497 8.56684C40.2831 8.56684 40.4231 8.57351 40.5697 8.58684ZM58.0736 8.58684C59.0336 8.68017 59.6736 8.91351 59.9936 9.28684C60.327 9.64684 60.507 10.3135 60.5336 11.2868C60.5603 12.1135 60.527 13.3668 60.4336 15.0468C60.367 16.3668 60.407 17.3468 60.5536 17.9868C60.8203 19.1068 61.4536 19.7202 62.4536 19.8268C63.707 19.9602 64.4203 19.1468 64.5936 17.3868C64.607 17.2002 64.627 16.4735 64.6536 15.2068C64.6803 13.9402 64.6203 12.2002 64.4736 9.98684C64.3136 7.48017 63.6403 5.81351 62.4536 4.98684C61.6003 4.38684 60.607 4.08684 59.4736 4.08684C59.087 4.08684 58.6136 4.14017 58.0536 4.24684C56.2936 4.58017 55.1403 5.00017 54.5936 5.50684C54.6336 5.25351 54.6536 5.00017 54.6536 4.74684C54.6536 4.40017 54.6203 4.04017 54.5536 3.66684C54.407 3.04017 53.9803 2.68684 53.2736 2.60684C51.9003 2.46017 51.0603 2.97351 50.7536 4.14684C50.607 4.69351 50.627 5.98684 50.8136 8.02684C51.027 10.4268 51.1203 11.9135 51.0936 12.4868L50.9336 15.3268C50.8936 16.0335 50.8736 16.6802 50.8736 17.2668C50.8736 18.9068 51.6203 19.7002 53.1136 19.6468C54.4336 19.5935 55.0403 18.4468 54.9336 16.2068C54.8936 15.7268 54.847 15.0002 54.7936 14.0268C54.727 12.4402 54.8603 11.2068 55.1936 10.3268C55.647 9.15351 56.467 8.56684 57.6536 8.56684C57.787 8.56684 57.927 8.57351 58.0736 8.58684ZM75.7976 4.24684C75.7176 4.55351 75.6776 5.18684 75.6776 6.14684C75.6909 7.22684 75.6442 7.98017 75.5376 8.40684C75.3776 8.88684 75.2176 9.22017 75.0576 9.40684C74.8576 9.64684 74.5509 9.81351 74.1376 9.90684C73.6576 9.90684 73.3642 9.90017 73.2576 9.88684C72.8442 9.83351 72.5109 9.76017 72.2576 9.66684C71.6709 9.44017 71.4176 8.71351 71.4976 7.48684C71.5376 6.88684 71.5576 6.24684 71.5576 5.56684C71.5576 5.52684 71.5442 5.22684 71.5176 4.66684C71.5176 4.60017 71.5109 4.31351 71.4976 3.80684C71.4842 3.24684 71.1109 2.85351 70.3776 2.62684C70.1109 2.54684 69.8976 2.50684 69.7376 2.50684C69.3109 2.50684 68.9642 2.67351 68.6976 3.00684C68.2709 3.52684 68.0709 4.06684 68.0976 4.62684C68.1242 4.97351 68.1642 5.60017 68.2176 6.50684C68.2442 6.89351 68.2842 7.58684 68.3376 8.58684C68.3776 9.40017 68.4242 9.88684 68.4776 10.0468C68.5709 10.8335 68.7642 11.4735 69.0576 11.9668C69.2842 12.3668 69.5042 12.6268 69.7176 12.7468C69.8376 12.8402 69.9776 12.9268 70.1376 13.0068C70.3909 13.1402 70.8442 13.2868 71.4976 13.4468C72.1509 13.5935 72.6376 13.6735 72.9576 13.6868C74.4509 13.7402 75.4776 13.5402 76.0376 13.0868C76.4509 12.7535 76.6776 12.5602 76.7176 12.5068C76.7176 12.6002 76.6976 12.7468 76.6576 12.9468C76.6309 13.5202 76.5242 14.1868 76.3376 14.9468C76.2042 15.4802 76.0042 15.8468 75.7376 16.0468C75.4842 16.2335 75.0509 16.3735 74.4376 16.4668C73.9042 16.4668 73.4842 16.4735 73.1776 16.4868C73.0176 16.5002 72.5842 16.3135 71.8776 15.9268C71.7576 15.8335 71.5109 15.6735 71.1376 15.4468C70.9642 15.3402 70.7509 15.2868 70.4976 15.2868C69.6576 15.2868 69.1842 15.7135 69.0776 16.5668C69.0109 17.0602 69.0576 17.5268 69.2176 17.9668C69.6442 19.1402 70.7776 19.8935 72.6176 20.2268C73.3509 20.3468 74.0376 20.4002 74.6776 20.3868C76.0909 20.3602 77.1242 19.9935 77.7776 19.2868C78.2976 18.7268 78.6909 17.8335 78.9576 16.6068C79.0776 16.0335 79.2176 15.0468 79.3776 13.6468C79.4176 13.2335 79.4842 12.6868 79.5776 12.0068C79.9509 9.07351 80.1109 7.17351 80.0576 6.30684C80.0042 5.73351 79.9242 4.88017 79.8176 3.74684C79.7776 3.34684 79.6576 3.04684 79.4576 2.84684C79.2442 2.70017 78.8709 2.54684 78.3376 2.38684C78.1509 2.33351 77.9576 2.30684 77.7576 2.30684C77.3442 2.30684 76.8976 2.42017 76.4176 2.64684C76.1909 2.95351 75.9842 3.48684 75.7976 4.24684ZM88.5118 0.386841C87.6051 0.400174 86.6984 0.52684 85.7918 0.76684C83.7651 1.30017 82.6918 2.68017 82.5718 4.90684C82.5184 5.82684 82.4918 6.76017 82.4918 7.70684C82.4918 10.2668 82.6784 12.8935 83.0518 15.5868C83.3451 17.6802 84.1784 19.0802 85.5518 19.7868C86.0451 20.0402 86.7784 20.2402 87.7518 20.3868C88.2184 20.4535 88.6984 20.4868 89.1918 20.4868C90.4984 20.4868 91.8851 20.2402 93.3518 19.7468C94.6318 19.3202 95.4451 18.5068 95.7918 17.3068C95.9251 16.8402 95.9851 16.1268 95.9718 15.1668C95.9318 13.2468 95.1784 11.8468 93.7118 10.9668C93.0318 10.5668 91.5918 10.1935 89.3918 9.84684C91.8184 9.58017 93.4051 8.88017 94.1518 7.74684C94.7651 6.81351 95.0718 5.86017 95.0718 4.88684C95.0718 4.70017 95.0518 4.47351 95.0118 4.20684C94.7051 2.15351 93.4384 0.946841 91.2118 0.58684C90.3184 0.440173 89.4184 0.373507 88.5118 0.386841ZM85.9318 5.18684C85.8918 4.00017 86.5718 3.38684 87.9718 3.34684C89.3984 3.30684 90.1584 3.78684 90.2518 4.78684C90.3584 5.80017 89.6651 6.42017 88.1718 6.64684C87.9184 6.68684 87.7118 6.70684 87.5518 6.70684C86.5118 6.70684 85.9718 6.20017 85.9318 5.18684ZM87.3518 13.4068C87.7651 13.2335 88.1718 13.1468 88.5718 13.1468C88.8918 13.1468 89.2118 13.1935 89.5318 13.2868C90.7451 13.6468 91.3518 14.2402 91.3518 15.0668C91.3518 15.2535 91.3184 15.4535 91.2518 15.6668C91.0118 16.4402 90.3118 16.8268 89.1518 16.8268C88.6718 16.8268 88.1718 16.7402 87.6518 16.5668C86.7718 16.2735 86.3118 15.7535 86.2718 15.0068C86.2318 14.2602 86.5918 13.7268 87.3518 13.4068ZM105.573 3.18684C103.093 3.06684 101.347 3.55351 100.333 4.64684C99.7598 5.26017 99.3398 6.01351 99.0732 6.90684C98.9265 7.37351 98.7598 8.23351 98.5732 9.48684C98.5332 9.75351 98.5132 10.0868 98.5132 10.4868C98.5132 11.3535 98.6198 12.4802 98.8332 13.8668C99.0598 15.3735 99.3198 16.4602 99.6132 17.1268C99.9998 18.0068 100.647 18.7268 101.553 19.2868C102.353 19.7668 103.46 20.0468 104.873 20.1268C106.18 20.1935 107.367 19.9535 108.433 19.4068C109.567 18.8335 110.4 17.9868 110.933 16.8668C111.48 15.7602 111.753 14.5868 111.753 13.3468C111.753 13.0135 111.74 12.7135 111.713 12.4468C111.5 10.3668 111.347 9.07351 111.253 8.56684C110.733 5.74017 109.647 4.05351 107.993 3.50684C107.513 3.34684 106.707 3.24017 105.573 3.18684ZM107.753 13.0868C107.78 13.4468 107.793 13.7002 107.793 13.8468C107.793 14.9402 107.447 15.7135 106.753 16.1668C106.207 16.5268 105.653 16.7068 105.093 16.7068C104.773 16.7068 104.46 16.6468 104.153 16.5268C103.287 16.1935 102.807 15.3002 102.713 13.8468C102.647 12.8335 102.6 11.5802 102.573 10.0868C102.56 8.92684 102.72 8.10017 103.053 7.60684C103.453 7.02017 104.207 6.73351 105.313 6.74684C106.14 6.76017 106.74 7.23351 107.113 8.16684C107.327 8.72684 107.48 9.54684 107.573 10.6268C107.573 10.6268 107.633 11.4468 107.753 13.0868ZM127.754 8.20684C126.101 10.0468 124.907 11.4002 124.174 12.2668C125.201 13.3202 125.941 14.1002 126.394 14.6068C127.407 15.7402 128.034 16.6135 128.274 17.2268C128.367 17.5335 128.374 17.9335 128.294 18.4268C128.227 18.8935 127.841 19.3135 127.134 19.6868C126.841 19.8468 126.567 19.9268 126.314 19.9268C125.914 19.9268 125.541 19.7535 125.194 19.4068C124.647 18.8602 123.487 17.4068 121.714 15.0468L119.074 18.6068C118.514 19.3535 117.874 19.7602 117.154 19.8268C116.434 19.8802 115.874 19.4935 115.474 18.6668C115.327 18.3602 115.254 18.0468 115.254 17.7268C115.254 17.1935 115.467 16.6402 115.894 16.0668C116.681 15.0135 117.841 13.7335 119.374 12.2268C117.974 10.7868 116.681 9.08017 115.494 7.10684C115.001 6.28017 114.754 5.56017 114.754 4.94684C114.754 4.44017 114.914 4.00684 115.234 3.64684C115.701 3.11351 116.201 2.84684 116.734 2.84684C117.014 2.84684 117.301 2.92017 117.594 3.06684C118.301 3.41351 119.121 4.39351 120.054 6.00684C120.494 6.79351 121.147 7.96684 122.014 9.52684L124.254 6.58684C125.241 5.29351 126.067 4.44017 126.734 4.02684C126.947 3.89351 127.167 3.82684 127.394 3.82684C127.847 3.82684 128.294 4.10684 128.734 4.66684C128.961 4.96017 129.074 5.28684 129.074 5.64684C129.074 6.36684 128.634 7.22017 127.754 8.20684Z" fill="white"/>
<path d="M4.22255 5.38684L3.42047 4.78955L3.41476 4.79737L4.22255 5.38684ZM6.16255 4.32684L6.06921 3.3312L6.06623 3.33149L6.16255 4.32684ZM9.98255 4.52684L9.78644 5.50743L9.79014 5.50815L9.98255 4.52684ZM12.4026 4.56684L11.8618 3.72566L11.8548 3.73017L11.8479 3.73479L12.4026 4.56684ZM13.4026 1.94684L12.4347 2.19847L12.4349 2.19926L13.4026 1.94684ZM11.7026 0.70684L11.867 -0.279585L11.8591 -0.280825L11.7026 0.70684ZM8.10255 0.386841L8.13315 -0.612704L8.12819 -0.612831L8.10255 0.386841ZM4.76255 0.566841L4.63989 -0.425609L4.63852 -0.425437L4.76255 0.566841ZM2.06255 1.22684L2.48328 2.13403L2.48649 2.13253L2.06255 1.22684ZM0.242554 3.22684L-0.708891 2.91902L-0.757446 3.0691V3.22684H0.242554ZM0.262554 15.2268L1.24313 15.0307L1.23092 14.9697L1.21124 14.9106L0.262554 15.2268ZM0.422554 17.0868L-0.575408 17.1508L-0.575094 17.1554L0.422554 17.0868ZM1.58255 20.1868L1.14267 21.0849L1.1511 21.089L1.58255 20.1868ZM3.20255 20.3868L3.18589 19.387L3.18531 19.387L3.20255 20.3868ZM4.96255 19.9068L5.59729 20.6796L5.59826 20.6788L4.96255 19.9068ZM5.12255 17.7668L6.09105 17.5178L6.09044 17.5154L5.12255 17.7668ZM4.74255 14.9668L3.7427 14.9496L3.74268 14.951L4.74255 14.9668ZM6.40255 13.8668L6.46197 12.8686L6.45055 12.8679L6.43912 12.8675L6.40255 13.8668ZM9.76255 14.0668L9.70314 15.0651L9.70383 15.0651L9.76255 14.0668ZM12.0426 12.9868L12.94 13.428L12.9431 13.4216L12.0426 12.9868ZM9.48255 10.1268L9.5656 11.1234L9.57309 11.1227L9.48255 10.1268ZM5.88255 10.5068L5.99298 11.5007L5.99546 11.5004L5.88255 10.5068ZM3.98255 9.66684L3.00975 9.89846L3.01168 9.90658L3.01375 9.91467L3.98255 9.66684ZM3.84255 8.58684L4.84072 8.52635L4.83954 8.50681L4.83759 8.48734L3.84255 8.58684ZM3.76255 7.80684L4.75725 7.70394L4.75439 7.67629L4.74999 7.64885L3.76255 7.80684ZM4.68255 7.00684C4.68255 6.64116 4.78978 6.30597 5.03034 5.97631L3.41476 4.79737C2.93533 5.45437 2.68255 6.19919 2.68255 7.00684H4.68255ZM5.0246 5.98411C5.31113 5.59934 5.69315 5.37694 6.25888 5.32219L6.06623 3.33149C4.97862 3.43674 4.06731 3.92101 3.42051 4.78957L5.0246 5.98411ZM6.25589 5.32247C7.43872 5.21158 8.61455 5.27304 9.78644 5.50742L10.1787 3.54626C8.81722 3.27397 7.44639 3.2021 6.06921 3.33121L6.25589 5.32247ZM9.79014 5.50815C10.5018 5.6477 11.1322 5.72684 11.6626 5.72684V3.72684C11.3129 3.72684 10.8233 3.67264 10.175 3.54553L9.79014 5.50815ZM11.6626 5.72684C12.0654 5.72684 12.5517 5.66926 12.9573 5.39889L11.8479 3.73479C11.8992 3.70058 11.9233 3.70141 11.8862 3.70943C11.8504 3.71718 11.7794 3.72684 11.6626 3.72684V5.72684ZM12.9433 5.40802C13.8927 4.79771 14.5226 3.92241 14.5226 2.78684H12.5226C12.5226 3.06461 12.4058 3.37597 11.8618 3.72566L12.9433 5.40802ZM14.5226 2.78684C14.5226 2.43017 14.4665 2.06386 14.3702 1.69442L12.4349 2.19926C12.4986 2.44315 12.5226 2.63684 12.5226 2.78684H14.5226ZM14.3704 1.69521C14.0573 0.491217 13.0285 -0.0859626 11.867 -0.279554L11.5382 1.69323C12.2966 1.81964 12.4011 2.06913 12.4347 2.19847L14.3704 1.69521ZM11.8591 -0.280825C10.7174 -0.461824 9.47471 -0.571624 8.13315 -0.612691L8.07196 1.38637C9.34374 1.4253 10.501 1.52884 11.546 1.69451L11.8591 -0.280825ZM8.12819 -0.612831C7.03197 -0.640939 5.86864 -0.577476 4.63989 -0.425608L4.88522 1.55929C6.0298 1.41782 7.09314 1.36129 8.07692 1.38651L8.12819 -0.612831ZM4.63852 -0.425437C3.42388 -0.273608 2.40401 -0.0371193 1.63861 0.32115L2.48649 2.13253C2.97443 1.90413 3.75456 1.70062 4.88659 1.55912L4.63852 -0.425437ZM1.64183 0.319652C0.48739 0.855044 -0.32384 1.72886 -0.708891 2.91902L1.194 3.53466C1.39561 2.91148 1.79772 2.45197 2.48328 2.13403L1.64183 0.319652ZM-0.757446 3.22684V15.1068H1.24255V3.22684H-0.757446ZM-0.757446 15.1068C-0.757446 15.26 -0.731602 15.4067 -0.686129 15.5431L1.21124 14.9106C1.23004 14.967 1.24255 15.0337 1.24255 15.1068H-0.757446ZM-0.718027 15.423C-0.71805 15.4228 -0.71584 15.4343 -0.711879 15.4622C-0.708116 15.4887 -0.703642 15.5238 -0.698531 15.5687C-0.68828 15.6587 -0.676665 15.7776 -0.663767 15.9275C-0.637997 16.2271 -0.608531 16.6339 -0.575398 17.1508L1.42051 17.0229C1.35612 16.0185 1.29967 15.3134 1.24313 15.0307L-0.718027 15.423ZM-0.575094 17.1554C-0.511868 18.0757 -0.375068 18.8781 -0.134023 19.5223C0.10372 20.1577 0.492431 20.7664 1.14269 21.0849L2.02242 19.2888C2.01934 19.2873 1.88805 19.2194 1.73913 18.8214C1.59351 18.4322 1.47698 17.8447 1.4202 17.0183L-0.575094 17.1554ZM1.1511 21.089C1.68881 21.3461 2.44097 21.4001 3.21979 21.3867L3.18531 19.387C2.41747 19.4002 2.08963 19.3209 2.01401 19.2847L1.1511 21.089ZM3.21922 21.3867C4.10889 21.3719 4.9674 21.197 5.59729 20.6796L4.32781 19.1341C4.21104 19.23 3.89622 19.3751 3.18589 19.387L3.21922 21.3867ZM5.59826 20.6788C6.1453 20.2283 6.30255 19.5725 6.30255 18.9868H4.30255C4.30255 19.116 4.28484 19.1759 4.27956 19.1902C4.27748 19.1958 4.27908 19.1897 4.28791 19.1769C4.29709 19.1636 4.3103 19.1485 4.32685 19.1349L5.59826 20.6788ZM6.30255 18.9868C6.30255 18.5307 6.2245 18.0368 6.09105 17.5178L4.15406 18.0159C4.26061 18.4302 4.30255 18.7497 4.30255 18.9868H6.30255ZM6.09044 17.5154C5.84079 16.5543 5.73084 15.7126 5.74243 14.9827L3.74268 14.951C3.7276 15.9011 3.87099 16.9261 4.15467 18.0182L6.09044 17.5154ZM5.74241 14.9841C5.74372 14.908 5.75729 14.8921 5.74928 14.9082C5.74545 14.9159 5.73923 14.9255 5.73116 14.9346C5.72326 14.9434 5.71808 14.9467 5.71993 14.9454C5.72517 14.942 5.76779 14.9159 5.87839 14.894C5.98924 14.872 6.14818 14.8582 6.36599 14.8662L6.43912 12.8675C5.80678 12.8444 5.14637 12.9263 4.61517 13.2782C4.01563 13.6755 3.75396 14.2964 3.7427 14.9496L5.74241 14.9841ZM6.40255 13.8668C6.34314 14.8651 6.34314 14.8651 6.34315 14.8651C6.34316 14.8651 6.34317 14.8651 6.34319 14.8651C6.3432 14.8651 6.34323 14.8651 6.34325 14.8651C6.34328 14.8651 6.34331 14.8651 6.34334 14.8651C6.34337 14.8651 6.34341 14.8651 6.34346 14.8651C6.3435 14.8651 6.34355 14.8651 6.3436 14.8651C6.34365 14.8651 6.3437 14.8651 6.34376 14.8651C6.34382 14.8651 6.34389 14.8651 6.34396 14.8651C6.344 14.8651 6.34434 14.8651 6.34442 14.8652C6.34469 14.8652 6.34467 14.8652 6.34498 14.8652C6.34508 14.8652 6.34519 14.8652 6.3453 14.8652C6.34541 14.8652 6.34553 14.8652 6.34565 14.8652C6.34589 14.8652 6.34614 14.8653 6.34642 14.8653C6.34702 14.8653 6.34752 14.8653 6.34826 14.8654C6.34843 14.8654 6.34913 14.8654 6.34934 14.8654C6.34953 14.8655 6.34972 14.8655 6.34992 14.8655C6.35011 14.8655 6.35031 14.8655 6.35052 14.8655C6.35102 14.8655 6.35255 14.8656 6.35318 14.8657C6.35414 14.8657 6.35517 14.8658 6.35626 14.8659C6.35735 14.8659 6.36201 14.8662 6.36364 14.8663C6.3639 14.8663 6.37186 14.8668 6.37267 14.8668C6.37541 14.867 6.37492 14.867 6.37779 14.8671C6.37824 14.8672 6.37869 14.8672 6.37914 14.8672C6.37959 14.8672 6.38005 14.8673 6.38051 14.8673C6.38097 14.8673 6.38144 14.8674 6.38191 14.8674C6.38238 14.8674 6.38285 14.8674 6.38333 14.8675C6.38638 14.8676 6.39204 14.868 6.39564 14.8682C6.42732 14.8701 6.42083 14.8697 6.46126 14.8721C6.49913 14.8744 6.50651 14.8748 6.55314 14.8776C6.58351 14.8794 6.63213 14.8823 6.67126 14.8846C6.67895 14.8851 6.73029 14.8881 6.74017 14.8887C6.74167 14.8888 6.74318 14.8889 6.74469 14.889C6.7462 14.8891 6.74772 14.8892 6.74924 14.8892C6.75214 14.8894 6.75549 14.8896 6.75842 14.8898C6.75996 14.8899 6.7615 14.89 6.76305 14.8901C6.76459 14.8902 6.76614 14.8903 6.7677 14.8903C6.77081 14.8905 6.77394 14.8907 6.77708 14.8909C6.78307 14.8913 6.8091 14.8928 6.81564 14.8932C6.892 14.8977 6.81911 14.8934 6.89767 14.8981C6.90478 14.8985 6.91195 14.8989 6.9192 14.8994C6.92101 14.8995 6.92283 14.8996 6.92465 14.8997C6.92647 14.8998 6.92829 14.8999 6.93012 14.9C6.93195 14.9001 6.93378 14.9002 6.93562 14.9003C6.93746 14.9005 6.9393 14.9006 6.94114 14.9007C6.94244 14.9007 6.96206 14.9019 6.9635 14.902C6.96538 14.9021 6.96726 14.9022 6.96915 14.9023C6.97104 14.9024 6.97293 14.9026 6.97483 14.9027C6.97672 14.9028 6.97863 14.9029 6.98053 14.903C6.98244 14.9031 6.98435 14.9032 6.98626 14.9034C7.06311 14.9079 7.09754 14.91 7.18314 14.9151C7.24531 14.9188 7.55846 14.9374 7.65564 14.9432C7.74305 14.9484 7.8351 14.9539 7.93126 14.9596C7.94191 14.9602 8.06608 14.9676 8.07892 14.9684C8.11012 14.9703 8.12345 14.971 8.15521 14.9729C8.15842 14.9731 8.16164 14.9733 8.16486 14.9735C8.16808 14.9737 8.1713 14.9739 8.17453 14.9741C8.17512 14.9741 8.19335 14.9752 8.19397 14.9752C8.20015 14.9756 8.22681 14.9772 8.23314 14.9776C8.30661 14.9819 8.23868 14.9779 8.31271 14.9823C8.31908 14.9827 8.34659 14.9843 8.35311 14.9847C8.35649 14.9849 8.35988 14.9851 8.36327 14.9853C8.36666 14.9855 8.37006 14.9857 8.37346 14.9859C8.38026 14.9863 8.38708 14.9867 8.39392 14.9871C8.41345 14.9883 8.39491 14.9872 8.41448 14.9884C8.42233 14.9888 8.42725 14.9891 8.43514 14.9896C8.44171 14.99 8.47006 14.9917 8.47677 14.9921C8.55481 14.9967 8.48267 14.9924 8.56126 14.9971C8.62624 15.001 8.668 15.0035 8.73517 15.0075C8.73655 15.0075 8.75595 15.0087 8.75737 15.0088C8.76107 15.009 8.77593 15.0099 8.77967 15.0101C8.79457 15.011 8.80954 15.0119 8.82458 15.0128C8.83153 15.0132 8.90813 15.0178 8.91564 15.0182C9.09185 15.0287 9.49192 15.0525 9.70314 15.0651L9.82197 13.0686C8.70197 13.0019 7.86197 12.9519 7.30197 12.9186C7.02241 12.902 6.81154 12.8894 6.67197 12.8811C6.57975 12.8756 6.57169 12.8751 6.51447 12.8717C6.49531 12.8706 6.48551 12.87 6.4751 12.8694C6.46801 12.869 6.47015 12.8691 6.46525 12.8688C6.46419 12.8687 6.46331 12.8687 6.46279 12.8687C6.46247 12.8686 6.46237 12.8686 6.46218 12.8686C6.4621 12.8686 6.46207 12.8686 6.46202 12.8686C6.46201 12.8686 6.46199 12.8686 6.46199 12.8686C6.46198 12.8686 6.46197 12.8686 6.40255 13.8668ZM9.70383 15.0651C10.3819 15.105 11.035 15.0232 11.6106 14.7506C12.204 14.4695 12.6515 14.0148 12.94 13.428L11.1451 12.5457C11.0469 12.7455 10.9211 12.8642 10.7545 12.9431C10.5701 13.0304 10.2765 13.0953 9.82128 13.0686L9.70383 15.0651ZM12.9431 13.4216C13.1828 12.9252 13.3226 12.4037 13.3226 11.8668H11.3226C11.3226 12.05 11.2757 12.2752 11.142 12.5521L12.9431 13.4216ZM13.3226 11.8668C13.3226 11.0563 13.0554 10.2917 12.3888 9.76322C11.7665 9.26988 10.9478 9.10684 10.1026 9.10684V11.1068C10.7373 11.1068 11.0286 11.2371 11.1463 11.3305C11.2197 11.3887 11.3226 11.504 11.3226 11.8668H13.3226ZM10.1026 9.10684C9.82564 9.10684 9.58367 9.11352 9.39202 9.13095L9.57309 11.1227C9.67477 11.1135 9.84613 11.1068 10.1026 11.1068V9.10684ZM9.39951 9.13029C8.74239 9.18505 7.52811 9.31341 5.76964 9.51324L5.99546 11.5004C7.757 11.3003 8.94272 11.1753 9.5656 11.1234L9.39951 9.13029ZM5.77212 9.51296C5.70471 9.52045 5.58619 9.52684 5.40255 9.52684V11.5268C5.61892 11.5268 5.8204 11.5199 5.99298 11.5007L5.77212 9.51296ZM5.40255 9.52684C5.10845 9.52684 4.99134 9.47207 4.96559 9.45648C4.957 9.45128 4.96049 9.45206 4.96498 9.45829C4.96867 9.46341 4.96062 9.45521 4.95136 9.41901L3.01375 9.91467C3.14701 10.4356 3.45223 10.8781 3.92952 11.1672C4.37711 11.4383 4.89666 11.5268 5.40255 11.5268V9.52684ZM4.95536 9.43522C4.90713 9.23266 4.86552 8.93558 4.84072 8.52635L2.84439 8.64733C2.87292 9.1181 2.92464 9.54102 3.00975 9.89846L4.95536 9.43522ZM4.83759 8.48734C4.82406 8.35204 4.79722 8.09037 4.75725 7.70394L2.76786 7.90974C2.80789 8.29665 2.83438 8.55498 2.84752 8.68635L4.83759 8.48734ZM4.74999 7.64885C4.70017 7.33746 4.68255 7.1302 4.68255 7.00684H2.68255C2.68255 7.28348 2.71827 7.60955 2.77511 7.96483L4.74999 7.64885ZM29.7555 16.4268L30.6772 16.0388L30.6768 16.0379L29.7555 16.4268ZM28.9555 12.4268L29.9465 12.2926L29.9462 12.2906L28.9555 12.4268ZM28.8355 7.70684L29.8313 7.79904L29.8313 7.79904L28.8355 7.70684ZM27.2355 3.80684L27.4093 2.82201L27.3999 2.82045L27.2355 3.80684ZM25.0955 5.74684L24.0963 5.70647L24.0958 5.72048L24.0956 5.7345L25.0955 5.74684ZM25.0155 10.6068L26.0152 10.6312L26.0154 10.6254L25.0155 10.6068ZM24.6355 14.0068L23.6889 13.6846L23.6868 13.6906L24.6355 14.0068ZM20.0355 14.2468L19.0416 14.3573L19.0421 14.3615L20.0355 14.2468ZM19.9755 9.56684L20.9752 9.59023L20.9753 9.58922L19.9755 9.56684ZM19.9555 6.14684L20.9498 6.03936L20.9489 6.0319L19.9555 6.14684ZM18.3555 3.62684L18.2788 4.6239L18.28 4.62398L18.3555 3.62684ZM15.8955 5.98684L16.8943 6.03714L16.8944 6.03403L15.8955 5.98684ZM15.9355 10.0668L16.9279 9.94279L16.9261 9.92969L15.9355 10.0668ZM16.1555 13.3468L15.1569 13.3998L15.1573 13.4061L16.1555 13.3468ZM16.5955 16.6068L15.6272 16.8567L15.6302 16.868L16.5955 16.6068ZM18.6955 19.1068L18.2571 20.0056L18.2641 20.009L18.6955 19.1068ZM21.9955 19.6668L22.0475 20.6655L22.0505 20.6653L21.9955 19.6668ZM25.5555 18.7868L25.078 17.9082L25.0731 17.9109L25.5555 18.7868ZM26.4355 17.6068L27.4136 17.3987L25.4372 17.6656L26.4355 17.6068ZM27.7155 18.9068L28.0459 17.963L28.0388 17.9605L28.0318 17.9582L27.7155 18.9068ZM29.5755 18.4668L30.3988 19.0346L30.4025 19.0292L29.5755 18.4668ZM30.9155 17.2468C30.9155 16.8293 30.839 16.423 30.6772 16.0388L28.8339 16.8149C28.8854 16.9373 28.9155 17.0777 28.9155 17.2468H30.9155ZM30.6768 16.0379C30.4847 15.583 30.2305 14.3888 29.9465 12.2926L27.9646 12.5611C28.2406 14.5983 28.5197 16.0707 28.8343 16.8158L30.6768 16.0379ZM29.9462 12.2906C29.8053 11.2657 29.7355 10.278 29.7355 9.32684H27.7355C27.7355 10.3757 27.8124 11.4547 27.9648 12.5631L29.9462 12.2906ZM29.7355 9.32684C29.7355 9.01483 29.7652 8.51242 29.8313 7.79904L27.8398 7.61464C27.7725 8.34126 27.7355 8.91885 27.7355 9.32684H29.7355ZM29.8313 7.79904C29.8985 7.07242 29.9355 6.49483 29.9355 6.08684H27.9355C27.9355 6.39885 27.9058 6.90126 27.8398 7.61464L29.8313 7.79904ZM29.9355 6.08684C29.9355 5.29402 29.7662 4.53796 29.3122 3.92909C28.8453 3.30285 28.1702 2.95633 27.4093 2.82206L27.0617 4.79162C27.4342 4.85735 27.6091 4.99083 27.7088 5.12459C27.8215 5.27572 27.9355 5.55966 27.9355 6.08684H29.9355ZM27.3999 2.82045C27.182 2.78413 26.9602 2.76684 26.7355 2.76684V4.76684C26.8575 4.76684 26.969 4.77622 27.0711 4.79323L27.3999 2.82045ZM26.7355 2.76684C25.9877 2.76684 25.2792 3.01565 24.7754 3.62395C24.3047 4.19217 24.1273 4.93924 24.0963 5.70647L26.0947 5.78721C26.117 5.23444 26.2396 4.99151 26.3157 4.89973C26.3585 4.84803 26.4434 4.76684 26.7355 4.76684V2.76684ZM24.0956 5.7345C24.0823 6.8113 24.0557 8.42878 24.0157 10.5883L26.0154 10.6254C26.0554 8.4649 26.0821 6.84238 26.0954 5.75919L24.0956 5.7345ZM24.0158 10.5825C23.9757 12.2271 23.8473 13.2192 23.6889 13.6846L25.5822 14.3291C25.8504 13.5411 25.9753 12.2665 26.0152 10.6312L24.0158 10.5825ZM23.6868 13.6906C23.5362 14.1425 23.3355 14.3995 23.13 14.5498C22.9262 14.6989 22.6309 14.8068 22.1755 14.8068V16.8068C22.9601 16.8068 23.6948 16.6148 24.311 16.1639C24.9256 15.7142 25.3348 15.0712 25.5842 14.3231L23.6868 13.6906ZM22.1755 14.8068C21.6371 14.8068 21.3707 14.6971 21.2496 14.6088C21.1606 14.5439 21.0634 14.4309 21.0289 14.1322L19.0421 14.3615C19.1277 15.1028 19.4471 15.7698 20.0715 16.2249C20.6637 16.6566 21.4073 16.8068 22.1755 16.8068V14.8068ZM21.0294 14.1364C20.9445 13.3724 20.9218 11.8762 20.9752 9.59023L18.9758 9.54346C18.9226 11.8175 18.9399 13.4413 19.0416 14.3573L21.0294 14.1364ZM20.9753 9.58922C21.0148 7.82224 21.0115 6.61088 20.9497 6.03936L18.9613 6.25432C19.0062 6.66947 19.0162 7.73811 18.9758 9.54446L20.9753 9.58922ZM20.9489 6.0319C20.8479 5.15906 20.6427 4.37399 20.2597 3.77083C19.8487 3.1234 19.229 2.69015 18.4311 2.6297L18.28 4.62398C18.362 4.6302 18.449 4.65028 18.5713 4.84285C18.7217 5.07969 18.8765 5.52128 18.9621 6.26178L20.9489 6.0319ZM18.4322 2.62979C17.4796 2.55651 16.5624 2.7489 15.8782 3.40522C15.2102 4.04611 14.9429 4.96081 14.8966 5.93965L16.8944 6.03403C16.9282 5.31953 17.1109 4.99423 17.2628 4.84846C17.3987 4.71811 17.6714 4.57717 18.2788 4.6239L18.4322 2.62979ZM14.8968 5.93654C14.803 7.79911 14.8113 9.23842 14.945 10.204L16.9261 9.92969C16.8198 9.16192 16.8014 7.88123 16.8943 6.03714L14.8968 5.93654ZM14.9432 10.1909C14.9911 10.5739 15.0629 11.6259 15.1569 13.3998L17.1541 13.2939C17.0615 11.5478 16.9866 10.4131 16.9278 9.94281L14.9432 10.1909ZM15.1573 13.4061C15.2392 14.7847 15.3913 15.9426 15.6272 16.8567L17.5638 16.357C17.373 15.6178 17.2319 14.6023 17.1538 13.2875L15.1573 13.4061ZM15.6302 16.868C16.0153 18.2912 16.9151 19.351 18.2571 20.0056L19.1339 18.2081C18.2893 17.7961 17.789 17.1891 17.5608 16.3456L15.6302 16.868ZM18.2641 20.009C19.3685 20.5372 20.6429 20.7386 22.0475 20.6655L21.9435 18.6682C20.7882 18.7284 19.8625 18.5565 19.127 18.2047L18.2641 20.009ZM22.0505 20.6653C23.5993 20.5801 24.9459 20.2642 26.0379 19.6628L25.0731 17.9109C24.3252 18.3228 23.2984 18.5936 21.9406 18.6684L22.0505 20.6653ZM26.033 19.6655C26.7825 19.2581 27.4943 18.5764 27.4338 17.5481L25.4372 17.6656C25.4369 17.6603 25.4377 17.6481 25.4417 17.6352C25.4454 17.6234 25.4472 17.6262 25.4339 17.644C25.4022 17.6865 25.3075 17.7835 25.078 17.9082L26.033 19.6655ZM25.4574 17.8149C25.6793 18.8578 26.4163 19.5279 27.3993 19.8555L28.0318 17.9582C27.5747 17.8058 27.4584 17.6092 27.4136 17.3987L25.4574 17.8149ZM27.3852 19.8507C27.7459 19.9769 28.1175 20.0468 28.4955 20.0468V18.0468C28.3669 18.0468 28.2185 18.0234 28.0459 17.963L27.3852 19.8507ZM28.4955 20.0468C29.2915 20.0468 29.9534 19.6802 30.3987 19.0346L28.7523 17.8991C28.6643 18.0268 28.6062 18.0468 28.4955 18.0468V20.0468ZM30.4025 19.0292C30.762 18.5004 30.9155 17.8884 30.9155 17.2468H28.9155C28.9155 17.5653 28.8424 17.7666 28.7486 17.9045L30.4025 19.0292ZM40.5697 8.58684L40.6665 7.59151L40.6603 7.59095L40.5697 8.58684ZM42.4897 9.28684L41.7305 9.93763L41.743 9.95218L41.756 9.96625L42.4897 9.28684ZM43.0297 11.2868L42.0301 11.3142L42.0303 11.3191L43.0297 11.2868ZM42.9297 15.0468L41.9313 14.9914L41.931 14.9964L42.9297 15.0468ZM43.0497 17.9868L42.075 18.2102L42.0769 18.2185L43.0497 17.9868ZM44.9497 19.8268L44.8437 20.8212L44.844 20.8212L44.9497 19.8268ZM47.0897 17.3868L48.0849 17.4849L48.0862 17.4715L48.0872 17.4581L47.0897 17.3868ZM47.1497 15.2068L48.1495 15.2279L47.1497 15.2068ZM46.9697 9.98684L45.9718 10.0505L45.9719 10.053L46.9697 9.98684ZM44.9497 4.98684L44.3746 5.80488L44.3781 5.80737L44.9497 4.98684ZM40.5497 4.24684L40.7358 5.22937L40.7369 5.22918L40.5497 4.24684ZM37.0897 5.50684L36.102 5.35088L35.6516 8.20319L37.7695 6.24027L37.0897 5.50684ZM37.0497 3.66684L38.0342 3.49105L38.0295 3.46486L38.0234 3.43896L37.0497 3.66684ZM35.7697 2.60684L35.8822 1.61317L35.8759 1.6125L35.7697 2.60684ZM33.2497 4.14684L34.2156 4.40597L34.2172 4.39971L33.2497 4.14684ZM33.3097 8.02684L34.3058 7.9383L34.3056 7.93572L33.3097 8.02684ZM33.5897 12.4868L34.5882 12.5431L34.5887 12.5333L33.5897 12.4868ZM33.4297 15.3268L34.4281 15.3834L34.4282 15.3831L33.4297 15.3268ZM35.6097 19.6468L35.6454 20.6462L35.6501 20.646L35.6097 19.6468ZM37.4297 16.2068L38.4286 16.1593L38.4278 16.1415L38.4263 16.1238L37.4297 16.2068ZM37.2897 14.0268L36.2905 14.0688L36.2912 14.0816L37.2897 14.0268ZM37.6897 10.3268L36.7569 9.96643L36.7546 9.97261L37.6897 10.3268ZM40.473 9.58215C41.3913 9.67143 41.6802 9.87891 41.7305 9.93763L43.249 8.63605C42.6593 7.94811 41.6682 7.68892 40.6665 7.59153L40.473 9.58215ZM41.756 9.96625C41.825 10.0408 42.0045 10.3791 42.0301 11.3142L44.0294 11.2595C44.0017 10.2479 43.8212 9.25292 43.2235 8.60743L41.756 9.96625ZM42.0303 11.3191C42.0555 12.1 42.0243 13.3172 41.9313 14.9914L43.9282 15.1023C44.0219 13.4164 44.0574 12.1271 44.0292 11.2546L42.0303 11.3191ZM41.931 14.9964C41.8634 16.3352 41.8961 17.4296 42.075 18.2102L44.0245 17.7635C43.91 17.2641 43.8627 16.3985 43.9285 15.0973L41.931 14.9964ZM42.0769 18.2185C42.2411 18.9081 42.5395 19.5311 43.0291 20.0052C43.5281 20.4885 44.1546 20.7477 44.8437 20.8212L45.0558 18.8325C44.7449 18.7993 44.5547 18.6985 44.4204 18.5685C44.2766 18.4292 44.125 18.1856 44.0225 17.7552L42.0769 18.2185ZM44.844 20.8212C45.7327 20.9158 46.5679 20.6703 47.1766 19.9762C47.7337 19.341 47.9896 18.4523 48.0849 17.4849L46.0946 17.2888C46.0165 18.0814 45.8291 18.4794 45.6729 18.6575C45.5683 18.7768 45.4201 18.8712 45.0555 18.8325L44.844 20.8212ZM48.0872 17.4581C48.1028 17.2391 48.1232 16.4772 48.1495 15.2279L46.15 15.1858C46.1229 16.4698 46.1033 17.1612 46.0923 17.3156L48.0872 17.4581ZM48.1495 15.2279C48.1771 13.9184 48.1149 12.145 47.9676 9.92072L45.9719 10.053C46.1179 12.2553 46.1757 13.9619 46.15 15.1858L48.1495 15.2279ZM47.9677 9.92314C47.8021 7.32808 47.0934 5.26145 45.5213 4.16631L44.3781 5.80737C45.1794 6.36556 45.8174 7.63227 45.9718 10.0505L47.9677 9.92314ZM45.5249 4.16881C44.4885 3.44007 43.2903 3.08684 41.9697 3.08684V5.08684C42.9159 5.08684 43.7043 5.33362 44.3746 5.80487L45.5249 4.16881ZM41.9697 3.08684C41.4984 3.08684 40.9582 3.15105 40.3626 3.2645L40.7369 5.22918C41.2613 5.12929 41.6678 5.08684 41.9697 5.08684V3.08684ZM40.3637 3.26431C39.4523 3.4369 38.6673 3.63742 38.0226 3.87221C37.3914 4.10206 36.8241 4.38957 36.41 4.77341L37.7695 6.24027C37.902 6.11744 38.1848 5.94162 38.7069 5.75147C39.2155 5.56626 39.8871 5.39011 40.7358 5.22937L40.3637 3.26431ZM38.0775 5.6628C38.1255 5.35852 38.1497 5.05304 38.1497 4.74684H36.1497C36.1497 4.9473 36.1339 5.14849 36.102 5.35088L38.0775 5.6628ZM38.1497 4.74684C38.1497 4.33603 38.1102 3.91705 38.0342 3.49105L36.0653 3.84263C36.1226 4.1633 36.1497 4.46432 36.1497 4.74684H38.1497ZM38.0234 3.43896C37.9087 2.94881 37.6653 2.49932 37.2576 2.16165C36.8574 1.83026 36.3744 1.6689 35.8822 1.61319L35.6573 3.60049C35.8718 3.62478 35.9554 3.68009 35.9819 3.70203C36.0008 3.7177 36.0441 3.7582 36.0761 3.89472L38.0234 3.43896ZM35.8759 1.6125C35.0565 1.52499 34.2589 1.61876 33.5883 2.02856C32.8988 2.44988 32.485 3.11826 32.2822 3.89397L34.2172 4.39971C34.3212 4.00209 34.4806 3.82713 34.6312 3.73512C34.8006 3.63159 35.1096 3.54203 35.6635 3.60119L35.8759 1.6125ZM32.2839 3.88771C32.1712 4.30764 32.1448 4.89079 32.1549 5.5423C32.1654 6.22437 32.2194 7.08547 32.3139 8.11796L34.3056 7.93572C34.2134 6.92821 34.1641 6.12265 34.1546 5.51138C34.1447 4.86956 34.1816 4.5327 34.2156 4.40597L32.2839 3.88771ZM32.3137 8.11538C32.5294 10.5429 32.6136 11.9505 32.5908 12.4404L34.5887 12.5333C34.6192 11.8765 34.5167 10.3108 34.3058 7.9383L32.3137 8.11538ZM32.5913 12.4306L32.4313 15.2706L34.4282 15.3831L34.5882 12.5431L32.5913 12.4306ZM32.4313 15.2703C32.3905 15.9921 32.3697 16.658 32.3697 17.2668H34.3697C34.3697 16.7024 34.389 16.0749 34.4281 15.3834L32.4313 15.2703ZM32.3697 17.2668C32.3697 18.2157 32.5831 19.1201 33.2015 19.7772C33.8379 20.4534 34.7226 20.6792 35.6454 20.6462L35.574 18.6475C35.0036 18.6679 34.7682 18.5237 34.6579 18.4065C34.5297 18.2702 34.3697 17.958 34.3697 17.2668H32.3697ZM35.6501 20.646C36.6578 20.6053 37.4651 20.1096 37.9387 19.2145C38.3666 18.4056 38.485 17.3442 38.4286 16.1593L36.4309 16.2544C36.4811 17.3095 36.3496 17.9414 36.1708 18.2792C36.0377 18.5307 35.8817 18.635 35.5694 18.6477L35.6501 20.646ZM38.4263 16.1238C38.3875 15.6585 38.3415 14.9435 38.2882 13.9721L36.2912 14.0816C36.3447 15.0569 36.392 15.7951 36.4332 16.2899L38.4263 16.1238ZM38.2889 13.9849C38.2245 12.453 38.3614 11.3766 38.6249 10.6811L36.7546 9.97261C36.3514 11.0371 36.2217 12.4274 36.2906 14.0688L38.2889 13.9849ZM38.6225 10.6872C38.7963 10.2374 39.0105 9.97477 39.2266 9.82013C39.4384 9.6686 39.7271 9.56684 40.1497 9.56684V7.56684C39.3857 7.56684 38.6711 7.75841 38.0629 8.19355C37.459 8.62558 37.0365 9.2429 36.7569 9.96644L38.6225 10.6872ZM40.1497 9.56684C40.2499 9.56684 40.3596 9.57186 40.4792 9.58273L40.6603 7.59095C40.4866 7.57516 40.3162 7.56684 40.1497 7.56684V9.56684ZM58.0736 8.58684L58.1704 7.59151L58.1642 7.59095L58.0736 8.58684ZM59.9936 9.28684L59.2344 9.93763L59.2469 9.95218L59.2599 9.96625L59.9936 9.28684ZM60.5336 11.2868L59.534 11.3142L59.5342 11.3191L60.5336 11.2868ZM60.4336 15.0468L59.4352 14.9914L59.4349 14.9964L60.4336 15.0468ZM60.5536 17.9868L59.5789 18.2102L59.5808 18.2185L60.5536 17.9868ZM62.4536 19.8268L62.3476 20.8212L62.3479 20.8212L62.4536 19.8268ZM64.5936 17.3868L65.5888 17.4849L65.5901 17.4715L65.5911 17.4581L64.5936 17.3868ZM64.6536 15.2068L65.6534 15.2279L64.6536 15.2068ZM64.4736 9.98684L63.4757 10.0505L63.4758 10.053L64.4736 9.98684ZM62.4536 4.98684L61.8785 5.80488L61.882 5.80737L62.4536 4.98684ZM58.0536 4.24684L58.2397 5.22937L58.2408 5.22918L58.0536 4.24684ZM54.5936 5.50684L53.6059 5.35088L53.1555 8.20319L55.2734 6.24027L54.5936 5.50684ZM54.5536 3.66684L55.5381 3.49105L55.5334 3.46486L55.5273 3.43896L54.5536 3.66684ZM53.2736 2.60684L53.3861 1.61317L53.3798 1.6125L53.2736 2.60684ZM50.7536 4.14684L51.7195 4.40597L51.7211 4.39971L50.7536 4.14684ZM50.8136 8.02684L51.8097 7.9383L51.8095 7.93572L50.8136 8.02684ZM51.0936 12.4868L52.0921 12.5431L52.0926 12.5333L51.0936 12.4868ZM50.9336 15.3268L51.932 15.3834L51.9321 15.3831L50.9336 15.3268ZM53.1136 19.6468L53.1493 20.6462L53.154 20.646L53.1136 19.6468ZM54.9336 16.2068L55.9325 16.1593L55.9317 16.1415L55.9302 16.1238L54.9336 16.2068ZM54.7936 14.0268L53.7944 14.0688L53.7951 14.0816L54.7936 14.0268ZM55.1936 10.3268L54.2608 9.96643L54.2585 9.97261L55.1936 10.3268ZM57.9769 9.58215C58.8952 9.67143 59.1841 9.87891 59.2344 9.93763L60.7529 8.63605C60.1632 7.94811 59.1721 7.68892 58.1704 7.59153L57.9769 9.58215ZM59.2599 9.96625C59.3289 10.0408 59.5084 10.3791 59.534 11.3142L61.5333 11.2595C61.5056 10.2479 61.3251 9.25292 60.7274 8.60743L59.2599 9.96625ZM59.5342 11.3191C59.5594 12.1 59.5282 13.3172 59.4352 14.9914L61.4321 15.1023C61.5258 13.4164 61.5613 12.1271 61.5331 11.2546L59.5342 11.3191ZM59.4349 14.9964C59.3673 16.3352 59.4 17.4296 59.5789 18.2102L61.5284 17.7635C61.4139 17.2641 61.3667 16.3985 61.4324 15.0973L59.4349 14.9964ZM59.5808 18.2185C59.745 18.9081 60.0434 19.5311 60.533 20.0052C61.0321 20.4885 61.6585 20.7477 62.3476 20.8212L62.5597 18.8325C62.2488 18.7993 62.0586 18.6985 61.9243 18.5685C61.7805 18.4292 61.6289 18.1856 61.5265 17.7552L59.5808 18.2185ZM62.3479 20.8212C63.2366 20.9158 64.0718 20.6703 64.6805 19.9762C65.2376 19.341 65.4936 18.4523 65.5888 17.4849L63.5985 17.2888C63.5204 18.0814 63.333 18.4794 63.1768 18.6575C63.0722 18.7768 62.924 18.8712 62.5594 18.8325L62.3479 20.8212ZM65.5911 17.4581C65.6067 17.2391 65.6271 16.4772 65.6534 15.2279L63.6539 15.1858C63.6268 16.4698 63.6072 17.1612 63.5962 17.3156L65.5911 17.4581ZM65.6534 15.2279C65.681 13.9184 65.6189 12.145 65.4715 9.92072L63.4758 10.053C63.6218 12.2553 63.6796 13.9619 63.6539 15.1858L65.6534 15.2279ZM65.4716 9.92314C65.306 7.32808 64.5973 5.26145 63.0253 4.16631L61.882 5.80737C62.6833 6.36556 63.3213 7.63227 63.4757 10.0505L65.4716 9.92314ZM63.0288 4.16881C61.9924 3.44007 60.7942 3.08684 59.4736 3.08684V5.08684C60.4198 5.08684 61.2082 5.33362 61.8785 5.80487L63.0288 4.16881ZM59.4736 3.08684C59.0023 3.08684 58.4621 3.15105 57.8665 3.2645L58.2408 5.22918C58.7652 5.12929 59.1717 5.08684 59.4736 5.08684V3.08684ZM57.8676 3.26431C56.9563 3.4369 56.1712 3.63742 55.5265 3.87221C54.8953 4.10206 54.328 4.38957 53.9139 4.77341L55.2734 6.24027C55.4059 6.11744 55.6887 5.94162 56.2108 5.75147C56.7194 5.56626 57.391 5.39011 58.2397 5.22937L57.8676 3.26431ZM55.5814 5.6628C55.6295 5.35852 55.6536 5.05304 55.6536 4.74684H53.6536C53.6536 4.9473 53.6378 5.14849 53.6059 5.35088L55.5814 5.6628ZM55.6536 4.74684C55.6536 4.33603 55.6141 3.91705 55.5381 3.49105L53.5692 3.84263C53.6265 4.1633 53.6536 4.46432 53.6536 4.74684H55.6536ZM55.5273 3.43896C55.4126 2.94881 55.1692 2.49932 54.7615 2.16165C54.3613 1.83026 53.8783 1.6689 53.3861 1.61319L53.1612 3.60049C53.3757 3.62478 53.4593 3.68009 53.4858 3.70203C53.5048 3.7177 53.548 3.7582 53.58 3.89472L55.5273 3.43896ZM53.3798 1.6125C52.5604 1.52499 51.7628 1.61876 51.0922 2.02856C50.4028 2.44988 49.9889 3.11826 49.7861 3.89397L51.7211 4.39971C51.8251 4.00209 51.9845 3.82713 52.1351 3.73512C52.3045 3.63159 52.6135 3.54203 53.1675 3.60119L53.3798 1.6125ZM49.7878 3.88771C49.6751 4.30764 49.6487 4.89079 49.6588 5.5423C49.6693 6.22437 49.7233 7.08547 49.8178 8.11796L51.8095 7.93572C51.7173 6.92821 51.668 6.12265 51.6585 5.51138C51.6486 4.86956 51.6855 4.5327 51.7195 4.40597L49.7878 3.88771ZM49.8176 8.11538C50.0334 10.5429 50.1175 11.9505 50.0947 12.4404L52.0926 12.5333C52.1231 11.8765 52.0206 10.3108 51.8097 7.9383L49.8176 8.11538ZM50.0952 12.4306L49.9352 15.2706L51.9321 15.3831L52.0921 12.5431L50.0952 12.4306ZM49.9352 15.2703C49.8944 15.9921 49.8736 16.658 49.8736 17.2668H51.8736C51.8736 16.7024 51.8929 16.0749 51.932 15.3834L49.9352 15.2703ZM49.8736 17.2668C49.8736 18.2157 50.087 19.1201 50.7054 19.7772C51.3418 20.4534 52.2265 20.6792 53.1493 20.6462L53.078 18.6475C52.5075 18.6679 52.2721 18.5237 52.1618 18.4065C52.0336 18.2702 51.8736 17.958 51.8736 17.2668H49.8736ZM53.154 20.646C54.1617 20.6053 54.969 20.1096 55.4426 19.2145C55.8705 18.4056 55.9889 17.3442 55.9325 16.1593L53.9348 16.2544C53.985 17.3095 53.8535 17.9414 53.6747 18.2792C53.5417 18.5307 53.3856 18.635 53.0733 18.6477L53.154 20.646ZM55.9302 16.1238C55.8914 15.6585 55.8454 14.9435 55.7921 13.9721L53.7951 14.0816C53.8486 15.0569 53.8959 15.7951 53.9371 16.2899L55.9302 16.1238ZM55.7928 13.9849C55.7284 12.453 55.8654 11.3766 56.1288 10.6811L54.2585 9.97261C53.8553 11.0371 53.7256 12.4274 53.7945 14.0688L55.7928 13.9849ZM56.1264 10.6872C56.3002 10.2374 56.5144 9.97477 56.7305 9.82013C56.9423 9.6686 57.231 9.56684 57.6536 9.56684V7.56684C56.8896 7.56684 56.175 7.75841 55.5668 8.19355C54.9629 8.62558 54.5404 9.2429 54.2608 9.96644L56.1264 10.6872ZM57.6536 9.56684C57.7538 9.56684 57.8635 9.57186 57.9831 9.58273L58.1642 7.59095C57.9905 7.57516 57.8201 7.56684 57.6536 7.56684V9.56684ZM75.7976 4.24684L76.7652 4.49926L76.767 4.49233L76.7687 4.48536L75.7976 4.24684ZM75.6776 6.14684L74.6775 6.14684L74.6776 6.15918L75.6776 6.14684ZM75.5376 8.40684L76.4862 8.72307L76.4984 8.68663L76.5077 8.64938L75.5376 8.40684ZM75.0576 9.40684L74.2982 8.75599L74.2893 8.76666L75.0576 9.40684ZM74.1376 9.90684V10.9068H74.2491L74.3578 10.8823L74.1376 9.90684ZM73.2576 9.88684L73.1296 10.8786L73.1335 10.8791L73.2576 9.88684ZM72.2576 9.66684L71.8972 10.5996L71.9045 10.6025L71.9118 10.6052L72.2576 9.66684ZM71.4976 7.48684L70.4998 7.42032L70.4997 7.42176L71.4976 7.48684ZM71.5176 4.66684H70.5176V4.69064L70.5187 4.71441L71.5176 4.66684ZM71.4976 3.80684L70.4978 3.83064L70.4979 3.83315L71.4976 3.80684ZM70.3776 2.62684L70.6729 1.6714L70.6649 1.66901L70.3776 2.62684ZM68.6976 3.00684L69.4707 3.64121L69.4784 3.63154L68.6976 3.00684ZM68.0976 4.62684L67.0987 4.67441L67.0994 4.68898L67.1005 4.70354L68.0976 4.62684ZM68.2176 6.50684L67.2192 6.56557L67.2199 6.57564L68.2176 6.50684ZM68.3376 8.58684L69.3364 8.53772L69.3361 8.53358L68.3376 8.58684ZM68.4776 10.0468L69.4706 9.92902L69.4586 9.82755L69.4262 9.73061L68.4776 10.0468ZM69.0576 11.9668L69.9276 11.4738L69.9224 11.4647L69.9171 11.4558L69.0576 11.9668ZM69.7176 12.7468L70.3315 11.9575L70.2727 11.9118L70.2078 11.8753L69.7176 12.7468ZM70.1376 13.0068L70.6033 12.1219L70.5941 12.1171L70.5848 12.1124L70.1376 13.0068ZM71.4976 13.4468L71.2597 14.4181L71.2691 14.4204L71.2785 14.4226L71.4976 13.4468ZM72.9576 13.6868L72.9159 14.686L72.9219 14.6862L72.9576 13.6868ZM76.0376 13.0868L75.4098 12.3084L75.4084 12.3096L76.0376 13.0868ZM76.7176 12.5068H77.7176V9.50684L75.9176 11.9068L76.7176 12.5068ZM76.6576 12.9468L75.677 12.7507L75.6621 12.8249L75.6586 12.9004L76.6576 12.9468ZM76.3376 14.9468L77.3077 15.1894L77.3087 15.1854L76.3376 14.9468ZM75.7376 16.0468L76.3308 16.8519L76.3376 16.8468L75.7376 16.0468ZM74.4376 16.4668V17.4668H74.5132L74.588 17.4555L74.4376 16.4668ZM73.1776 16.4868L73.1341 15.4878L73.1143 15.4886L73.0945 15.4903L73.1776 16.4868ZM71.8776 15.9268L71.2636 16.7162L71.327 16.7655L71.3975 16.8041L71.8776 15.9268ZM71.1376 15.4468L70.6134 16.2985L70.6186 16.3016L71.1376 15.4468ZM69.0776 16.5668L70.0686 16.7008L70.0698 16.6909L69.0776 16.5668ZM69.2176 17.9668L70.1573 17.6251L70.1573 17.6251L69.2176 17.9668ZM72.6176 20.2268L72.4393 21.2108L72.4477 21.2123L72.4561 21.2137L72.6176 20.2268ZM74.6776 20.3868L74.6587 19.387L74.6567 19.3871L74.6776 20.3868ZM77.7776 19.2868L77.0448 18.6064L77.0433 18.608L77.7776 19.2868ZM78.9576 16.6068L79.9348 16.8193L79.9363 16.8117L78.9576 16.6068ZM79.3776 13.6468L80.3711 13.7604L80.3721 13.7518L80.3729 13.7432L79.3776 13.6468ZM79.5776 12.0068L80.5683 12.1428L80.5696 12.1331L79.5776 12.0068ZM80.0576 6.30684L81.0557 6.24542L81.0547 6.2298L81.0533 6.21422L80.0576 6.30684ZM79.8176 3.74684L80.8132 3.65314L80.8126 3.64734L79.8176 3.74684ZM79.4576 2.84684L80.1647 2.13973L80.0997 2.07481L80.0241 2.0228L79.4576 2.84684ZM78.3376 2.38684L78.6249 1.42893L78.6123 1.42532L78.3376 2.38684ZM76.4176 2.64684L75.9905 1.74259L75.763 1.85006L75.6134 2.05245L76.4176 2.64684ZM74.8299 3.99442C74.7121 4.44627 74.6776 5.21013 74.6776 6.14684H76.6776C76.6776 5.16355 76.723 4.66074 76.7652 4.49926L74.8299 3.99442ZM74.6776 6.15918C74.691 7.24186 74.6392 7.87701 74.5674 8.16431L76.5077 8.64938C76.6492 8.08334 76.6908 7.21182 76.6775 6.1345L74.6776 6.15918ZM74.5889 8.09061C74.5177 8.30421 74.4527 8.46613 74.396 8.58411C74.368 8.64242 74.3444 8.6852 74.3259 8.71524C74.3071 8.74584 74.2972 8.75728 74.2983 8.75605L75.8168 10.0576C76.1105 9.71505 76.3194 9.22358 76.4862 8.72307L74.5889 8.09061ZM74.2893 8.76666C74.2728 8.78646 74.1917 8.86943 73.9173 8.9314L74.3578 10.8823C74.91 10.7576 75.4423 10.5072 75.8258 10.047L74.2893 8.76666ZM74.1376 8.90684C73.901 8.90684 73.7162 8.90519 73.5803 8.9021C73.4287 8.89865 73.3773 8.89403 73.3816 8.89456L73.1335 10.8791C73.317 10.9021 73.6855 10.9068 74.1376 10.9068V8.90684ZM73.3855 8.89506C73.011 8.84674 72.7591 8.78593 72.6033 8.7285L71.9118 10.6052C72.2626 10.7344 72.6774 10.8203 73.1296 10.8786L73.3855 8.89506ZM72.618 8.73404C72.6179 8.734 72.6213 8.73542 72.6259 8.73866C72.6305 8.74188 72.632 8.74389 72.6304 8.74199C72.6269 8.73804 72.6013 8.70733 72.5718 8.62265C72.5077 8.43885 72.4595 8.10216 72.4954 7.55192L70.4997 7.42176C70.4556 8.09819 70.494 8.73816 70.6833 9.28103C70.883 9.85379 71.2696 10.3572 71.8972 10.5996L72.618 8.73404ZM72.4953 7.55336C72.537 6.92858 72.5576 6.26622 72.5576 5.56684H70.5576C70.5576 6.22746 70.5381 6.8451 70.4998 7.42032L72.4953 7.55336ZM72.5576 5.56684C72.5576 5.49539 72.542 5.15574 72.5164 4.61928L70.5187 4.71441C70.532 4.99409 70.5419 5.20784 70.5485 5.35624C70.5559 5.52274 70.5576 5.57564 70.5576 5.56684H72.5576ZM72.5176 4.66684C72.5176 4.58311 72.5103 4.27734 72.4972 3.78053L70.4979 3.83315C70.5046 4.08611 70.5095 4.28326 70.5128 4.42509C70.5145 4.49607 70.5157 4.55236 70.5165 4.59445C70.5169 4.61551 70.5172 4.63232 70.5173 4.64523C70.5174 4.65165 70.5175 4.65673 70.5175 4.66061C70.5175 4.66253 70.5175 4.66402 70.5175 4.66513C70.5176 4.66567 70.5176 4.66609 70.5176 4.66639C70.5176 4.66653 70.5176 4.66665 70.5176 4.66672C70.5176 4.66676 70.5176 4.66679 70.5176 4.66681C70.5176 4.66685 70.5176 4.6668 70.5176 4.66683C70.5176 4.66687 70.5176 4.66681 70.5176 4.66684H72.5176ZM72.4973 3.78304C72.4849 3.26412 72.2963 2.78635 71.9329 2.40341C71.5892 2.04129 71.1391 1.81556 70.6729 1.67144L70.0822 3.58224C70.3493 3.66479 70.4526 3.74906 70.4822 3.78027C70.489 3.78736 70.4919 3.79164 70.4927 3.79293C70.493 3.79332 70.4932 3.79359 70.4933 3.79375C70.4934 3.79391 70.4934 3.79399 70.4934 3.79401C70.4934 3.79403 70.4934 3.79401 70.4934 3.79398C70.4934 3.79394 70.4934 3.79393 70.4934 3.79395C70.4934 3.79396 70.4934 3.79405 70.4935 3.79423C70.4935 3.7944 70.4936 3.7947 70.4938 3.79515C70.494 3.796 70.4945 3.79762 70.495 3.80016C70.496 3.80512 70.4975 3.8149 70.4978 3.83064L72.4973 3.78304ZM70.6649 1.66901C70.363 1.57846 70.0411 1.50684 69.7376 1.50684V3.50684C69.7365 3.50684 69.7439 3.50681 69.761 3.50865C69.778 3.51047 69.8018 3.51382 69.8333 3.51971C69.8971 3.53168 69.9818 3.55215 70.0902 3.58467L70.6649 1.66901ZM69.7376 1.50684C69.0069 1.50684 68.373 1.81173 67.9167 2.38214L69.4784 3.63154C69.5554 3.53528 69.6148 3.50684 69.7376 3.50684V1.50684ZM67.9245 2.37252C67.3738 3.04368 67.058 3.81941 67.0987 4.67441L69.0964 4.57928C69.0838 4.31427 69.168 4.01 69.4706 3.64116L67.9245 2.37252ZM67.1005 4.70354C67.1264 5.04006 67.1659 5.65834 67.2193 6.56556L69.2158 6.44812C69.1625 5.542 69.1221 4.90695 69.0946 4.55014L67.1005 4.70354ZM67.2199 6.57564C67.246 6.95356 67.2856 7.63969 67.339 8.6401L69.3361 8.53358C69.2828 7.53399 69.2425 6.83345 69.2152 6.43804L67.2199 6.57564ZM67.3388 8.63596C67.3591 9.0494 67.3817 9.3918 67.4071 9.65729C67.4289 9.88403 67.4606 10.1583 67.5289 10.3631L69.4262 9.73061C69.4402 9.77263 69.4374 9.77947 69.4271 9.71277C69.4186 9.65779 69.4086 9.57723 69.398 9.46639C69.3768 9.24521 69.356 8.93761 69.3363 8.53772L67.3388 8.63596ZM67.4845 10.1647C67.5885 11.0408 67.8114 11.8277 68.198 12.4779L69.9171 11.4558C69.717 11.1193 69.5533 10.6262 69.4706 9.92902L67.4845 10.1647ZM68.1875 12.4599C68.4374 12.9008 68.7687 13.3605 69.2273 13.6184L70.2078 11.8753C70.2368 11.8916 70.2169 11.888 70.1559 11.8159C70.0973 11.7466 70.0201 11.6371 69.9276 11.4738L68.1875 12.4599ZM69.1036 13.5362C69.2837 13.6763 69.4815 13.7968 69.6903 13.9013L70.5848 12.1124C70.4736 12.0569 70.3914 12.004 70.3315 11.9575L69.1036 13.5362ZM69.6718 13.8918C70.0442 14.0878 70.6046 14.2577 71.2597 14.4181L71.7354 12.4755C71.0838 12.316 70.7376 12.1926 70.6033 12.1219L69.6718 13.8918ZM71.2785 14.4226C71.9415 14.5714 72.5013 14.6687 72.9159 14.686L72.9992 12.6877C72.7738 12.6783 72.3603 12.6156 71.7166 12.4711L71.2785 14.4226ZM72.9219 14.6862C74.4398 14.7404 75.8007 14.5652 76.6668 13.8641L75.4084 12.3096C75.1544 12.5152 74.462 12.7399 72.9932 12.6875L72.9219 14.6862ZM76.6653 13.8653C76.8745 13.6965 77.0428 13.5582 77.1665 13.4527C77.2278 13.4004 77.2842 13.351 77.3316 13.3072C77.3585 13.2823 77.4455 13.203 77.5176 13.1068L75.9176 11.9068C75.9378 11.8799 75.9545 11.8607 75.9624 11.8519C75.9713 11.842 75.9776 11.8355 75.98 11.8331C75.9844 11.8286 75.9832 11.83 75.9735 11.839C75.9542 11.8568 75.9206 11.8866 75.8686 11.931C75.7656 12.0188 75.6139 12.1438 75.4098 12.3084L76.6653 13.8653ZM75.7176 12.5068C75.7176 12.4901 75.7187 12.5005 75.7117 12.5517C75.7053 12.5986 75.6943 12.664 75.677 12.7507L77.6381 13.143C77.6796 12.9358 77.7176 12.7062 77.7176 12.5068H75.7176ZM75.6586 12.9004C75.6358 13.3904 75.5428 13.9903 75.3664 14.7083L77.3087 15.1854C77.5057 14.3834 77.6259 13.6499 77.6565 12.9933L75.6586 12.9004ZM75.3674 14.7043C75.3153 14.9129 75.2585 15.0534 75.2097 15.143C75.1614 15.2315 75.1312 15.2516 75.1376 15.2468L76.3376 16.8468C76.8741 16.4445 77.152 15.812 77.3077 15.1894L75.3674 14.7043ZM75.1444 15.2418C75.096 15.2774 74.8672 15.3899 74.2871 15.4782L74.588 17.4555C75.2346 17.3571 75.8725 17.1896 76.3308 16.8519L75.1444 15.2418ZM74.4376 15.4668C73.8986 15.4668 73.462 15.4735 73.1341 15.4878L73.221 17.4859C73.5064 17.4735 73.9098 17.4668 74.4376 17.4668V15.4668ZM73.0945 15.4903C73.1819 15.483 73.2437 15.492 73.2633 15.4951C73.2869 15.4989 73.2962 15.5022 73.2867 15.4995C73.2664 15.4935 73.2163 15.4764 73.1282 15.4384C72.9534 15.3631 72.6997 15.2368 72.3576 15.0496L71.3975 16.8041C71.7621 17.0036 72.0784 17.1639 72.3369 17.2753C72.4655 17.3306 72.5978 17.3818 72.7259 17.4192C72.8295 17.4495 73.0315 17.5025 73.2606 17.4834L73.0945 15.4903ZM72.4915 15.1375C72.3188 15.0032 72.0232 14.8147 71.6565 14.5921L70.6186 16.3016C70.9986 16.5324 71.1963 16.6638 71.2636 16.7162L72.4915 15.1375ZM71.6617 14.5952C71.2963 14.3703 70.8909 14.2868 70.4976 14.2868V16.2868C70.6109 16.2868 70.6321 16.31 70.6135 16.2985L71.6617 14.5952ZM70.4976 14.2868C69.9106 14.2868 69.3154 14.4382 68.843 14.8641C68.3739 15.287 68.1579 15.8617 68.0853 16.4428L70.0698 16.6909C70.1039 16.4186 70.1779 16.3534 70.1821 16.3496C70.183 16.3488 70.2445 16.2868 70.4976 16.2868V14.2868ZM68.0866 16.4329C67.9996 17.0762 68.059 17.7069 68.2778 18.3086L70.1573 17.6251C70.0561 17.3468 70.0221 17.0442 70.0685 16.7008L68.0866 16.4329ZM68.2778 18.3086C68.8798 19.9642 70.4385 20.8484 72.4393 21.2108L72.7958 19.2429C71.1166 18.9387 70.4086 18.3161 70.1573 17.6251L68.2778 18.3086ZM72.4561 21.2137C73.2403 21.342 73.9885 21.4014 74.6984 21.3866L74.6567 19.3871C74.0866 19.3989 73.4615 19.3516 72.779 19.24L72.4561 21.2137ZM74.6964 21.3867C76.254 21.3573 77.6018 20.95 78.5118 19.9657L77.0433 18.608C76.6466 19.037 75.9278 19.3631 74.6587 19.387L74.6964 21.3867ZM78.5103 19.9673C79.2071 19.2169 79.6519 18.1204 79.9347 16.8193L77.9804 16.3944C77.7299 17.5466 77.388 18.2368 77.0448 18.6064L78.5103 19.9673ZM79.9363 16.8117C80.0668 16.1884 80.2111 15.1605 80.3711 13.7604L78.384 13.5333C78.224 14.9332 78.0883 15.8786 77.9788 16.402L79.9363 16.8117ZM80.3729 13.7432C80.4111 13.3488 80.4757 12.8169 80.5683 12.1428L78.5868 11.8709C78.4927 12.5568 78.424 13.1182 78.3822 13.5505L80.3729 13.7432ZM80.5696 12.1331C80.9397 9.22449 81.1159 7.22468 81.0557 6.24542L79.0594 6.36826C79.1058 7.12233 78.962 8.92252 78.5856 11.8806L80.5696 12.1331ZM81.0533 6.21422C80.9999 5.64033 80.9198 4.78656 80.8132 3.65314L78.822 3.84054C78.9286 4.97379 79.0086 5.82669 79.0619 6.39946L81.0533 6.21422ZM80.8126 3.64734C80.7591 3.11255 80.5846 2.55962 80.1647 2.13973L78.7504 3.55395C78.7306 3.53406 78.796 3.58113 78.8225 3.84634L80.8126 3.64734ZM80.0241 2.0228C79.6733 1.7816 79.1703 1.59265 78.6249 1.42901L78.0502 3.34467C78.5714 3.50103 78.8152 3.61874 78.891 3.67088L80.0241 2.0228ZM78.6123 1.42532C78.3336 1.34569 78.0476 1.30684 77.7576 1.30684V3.30684C77.8675 3.30684 77.9682 3.32132 78.0628 3.34836L78.6123 1.42532ZM77.7576 1.30684C77.1608 1.30684 76.5675 1.47016 75.9905 1.74259L76.8446 3.55109C77.2277 3.37018 77.5276 3.30684 77.7576 3.30684V1.30684ZM75.6134 2.05245C75.2619 2.52793 75.0184 3.22653 74.8264 4.00831L76.7687 4.48536C76.95 3.74715 77.1198 3.37908 77.2217 3.24123L75.6134 2.05245ZM88.5118 0.386841L88.5265 1.38673L88.5265 1.38673L88.5118 0.386841ZM85.7918 0.76684L86.0463 1.73392L86.0477 1.73355L85.7918 0.76684ZM82.5718 4.90684L83.5701 4.96472L83.5703 4.96065L82.5718 4.90684ZM83.0518 15.5868L82.0612 15.7241L82.0614 15.7256L83.0518 15.5868ZM85.5518 19.7868L85.0942 20.676L85.095 20.6764L85.5518 19.7868ZM87.7518 20.3868L87.6028 21.3757L87.6104 21.3768L87.7518 20.3868ZM93.3518 19.7468L93.0355 18.7982L93.033 18.799L93.3518 19.7468ZM95.7918 17.3068L96.7525 17.5844L96.7533 17.5816L95.7918 17.3068ZM95.9718 15.1668L96.9717 15.153L96.9716 15.146L95.9718 15.1668ZM93.7118 10.9668L94.2263 10.1093L94.2188 10.1049L93.7118 10.9668ZM89.3918 9.84684L89.2825 8.85282L89.2361 10.8347L89.3918 9.84684ZM94.1518 7.74684L94.9868 8.297L94.9875 8.29602L94.1518 7.74684ZM95.0118 4.20684L94.0227 4.35455L94.0228 4.35518L95.0118 4.20684ZM91.2118 0.58684L91.0498 1.57363L91.0522 1.57402L91.2118 0.58684ZM85.9318 5.18684L84.9323 5.22053L84.9326 5.22628L85.9318 5.18684ZM87.9718 3.34684L87.9437 2.34723L87.9432 2.34725L87.9718 3.34684ZM90.2518 4.78684L89.256 4.87978L89.2573 4.89152L90.2518 4.78684ZM88.1718 6.64684L88.0217 5.65815L88.0158 5.65908L88.1718 6.64684ZM87.3518 13.4068L86.965 12.4846L86.9637 12.4852L87.3518 13.4068ZM89.5318 13.2868L89.8162 12.3281L89.8118 12.3268L89.5318 13.2868ZM91.2518 15.6668L90.2973 15.3686L90.2967 15.3704L91.2518 15.6668ZM87.6518 16.5668L87.3355 17.5155L87.3355 17.5155L87.6518 16.5668ZM86.2718 15.0068L87.2703 14.9533L87.2703 14.9533L86.2718 15.0068ZM88.4971 -0.613051C87.5062 -0.59848 86.5186 -0.459992 85.5359 -0.199865L86.0477 1.73355C86.8783 1.51367 87.704 1.39883 88.5265 1.38673L88.4971 -0.613051ZM85.5373 -0.200234C84.3552 0.110833 83.374 0.692275 82.6774 1.5879C81.985 2.47818 81.6412 3.5921 81.5732 4.85303L83.5703 4.96065C83.6224 3.99491 83.8752 3.3055 84.2561 2.81578C84.6329 2.33141 85.2017 1.95618 86.0463 1.73392L85.5373 -0.200234ZM81.5734 4.84897C81.519 5.78875 81.4918 6.74139 81.4918 7.70684H83.4918C83.4918 6.77895 83.5179 5.86493 83.5701 4.96471L81.5734 4.84897ZM81.4918 7.70684C81.4918 10.3155 81.682 12.9881 82.0612 15.7241L84.0423 15.4495C83.6749 12.7989 83.4918 10.2182 83.4918 7.70684H81.4918ZM82.0614 15.7256C82.3818 18.0119 83.3329 19.7697 85.0942 20.676L86.0093 18.8977C85.024 18.3906 84.3084 17.3484 84.0421 15.4481L82.0614 15.7256ZM85.095 20.6764C85.7321 21.0036 86.5917 21.2233 87.6028 21.3757L87.9008 19.398C86.9652 19.257 86.3581 19.0768 86.0086 18.8973L85.095 20.6764ZM87.6104 21.3768C88.126 21.4505 88.6533 21.4868 89.1918 21.4868V19.4868C88.7436 19.4868 88.3109 19.4566 87.8932 19.3969L87.6104 21.3768ZM89.1918 21.4868C90.6247 21.4868 92.1196 21.2164 93.6706 20.6947L93.033 18.799C91.6506 19.264 90.3722 19.4868 89.1918 19.4868V21.4868ZM93.668 20.6955C95.2307 20.1746 96.3062 19.1293 96.7525 17.5844L94.8311 17.0293C94.584 17.8844 94.0329 18.4657 93.0355 18.7982L93.668 20.6955ZM96.7533 17.5816C96.9284 16.9688 96.9853 16.1348 96.9717 15.153L94.9719 15.1807C94.9849 16.1189 94.9218 16.7116 94.8302 17.0321L96.7533 17.5816ZM96.9716 15.146C96.9254 12.9323 96.0283 11.1906 94.2263 10.1093L93.1973 11.8243C94.3286 12.5031 94.9381 13.5614 94.972 15.1877L96.9716 15.146ZM94.2188 10.1049C93.7566 9.83304 93.1181 9.61209 92.3727 9.41884C91.61 9.2211 90.6654 9.0352 89.5474 8.85903L89.2361 10.8347C90.3181 11.0051 91.1935 11.1792 91.8708 11.3548C92.5654 11.5349 92.9869 11.7006 93.2048 11.8288L94.2188 10.1049ZM89.501 10.8409C92.0012 10.5661 93.9839 9.8193 94.9868 8.297L93.3167 7.19668C92.8263 7.94105 91.6356 8.59424 89.2825 8.85282L89.501 10.8409ZM94.9875 8.29602C95.6918 7.22428 96.0718 6.08294 96.0718 4.88684H94.0718C94.0718 5.63741 93.8385 6.40273 93.3161 7.19766L94.9875 8.29602ZM96.0718 4.88684C96.0718 4.63404 96.0451 4.35471 96.0007 4.0585L94.0228 4.35518C94.0584 4.59231 94.0718 4.76631 94.0718 4.88684H96.0718ZM96.0008 4.05913C95.821 2.85501 95.3446 1.82187 94.5215 1.03779C93.705 0.259977 92.6266 -0.197398 91.3714 -0.400341L91.0522 1.57402C92.0236 1.73108 92.6918 2.05704 93.142 2.48589C93.5856 2.90848 93.8959 3.50534 94.0227 4.35455L96.0008 4.05913ZM91.3738 -0.399949C90.422 -0.55622 89.4628 -0.627254 88.4971 -0.613051L88.5265 1.38673C89.3741 1.37427 90.2149 1.43657 91.0498 1.57363L91.3738 -0.399949ZM86.9312 5.15315C86.918 4.76073 87.0217 4.63335 87.0815 4.57941C87.1726 4.49732 87.4173 4.36309 88.0003 4.34643L87.9432 2.34725C87.1262 2.37059 86.331 2.56303 85.742 3.09427C85.1218 3.65367 84.9056 4.42628 84.9323 5.22053L86.9312 5.15315ZM87.9998 4.34645C88.6217 4.32901 88.9378 4.43391 89.0778 4.52233C89.1622 4.57565 89.2344 4.64722 89.2561 4.87977L91.2474 4.69391C91.1758 3.92646 90.8213 3.25803 90.1458 2.83135C89.5258 2.43978 88.7485 2.32467 87.9437 2.34723L87.9998 4.34645ZM89.2573 4.89152C89.2807 5.11411 89.2269 5.19338 89.1452 5.26641C89.008 5.38912 88.6849 5.5575 88.0217 5.65816L88.3218 7.63552C89.1519 7.50952 89.9222 7.25456 90.4784 6.75727C91.09 6.2103 91.3295 5.4729 91.2463 4.68216L89.2573 4.89152ZM88.0158 5.65908C87.7873 5.69516 87.6381 5.70684 87.5518 5.70684V7.70684C87.7855 7.70684 88.0496 7.67852 88.3277 7.6346L88.0158 5.65908ZM87.5518 5.70684C87.1827 5.70684 87.072 5.61729 87.051 5.59758C87.0343 5.5819 86.9445 5.49067 86.931 5.1474L84.9326 5.22628C84.959 5.89635 85.1593 6.56512 85.6825 7.0561C86.2015 7.54305 86.8808 7.70684 87.5518 7.70684V5.70684ZM87.7385 14.329C88.0441 14.2009 88.3197 14.1468 88.5718 14.1468V12.1468C88.0239 12.1468 87.4861 12.2661 86.965 12.4846L87.7385 14.329ZM88.5718 14.1468C88.7931 14.1468 89.0189 14.1789 89.2518 14.2468L89.8118 12.3268C89.4046 12.2081 88.9904 12.1468 88.5718 12.1468V14.1468ZM89.2473 14.2455C89.7686 14.4002 90.0538 14.5762 90.1976 14.7168C90.3143 14.8309 90.3518 14.9305 90.3518 15.0668H92.3518C92.3518 14.3765 92.0859 13.7661 91.596 13.2869C91.1331 12.8342 90.5083 12.5335 89.8162 12.3281L89.2473 14.2455ZM90.3518 15.0668C90.3518 15.1347 90.3395 15.2333 90.2973 15.3686L92.2063 15.9651C92.2973 15.6737 92.3518 15.3723 92.3518 15.0668H90.3518ZM90.2967 15.3704C90.2522 15.5139 90.1841 15.5948 90.0633 15.6615C89.9131 15.7444 89.6338 15.8268 89.1518 15.8268V17.8268C89.8297 17.8268 90.4804 17.7159 91.0303 17.4122C91.6095 17.0922 92.0114 16.5931 92.2068 15.9632L90.2967 15.3704ZM89.1518 15.8268C88.7933 15.8268 88.4003 15.7622 87.968 15.6182L87.3355 17.5155C87.9433 17.7181 88.5502 17.8268 89.1518 17.8268V15.8268ZM87.968 15.6182C87.6407 15.5091 87.4764 15.3854 87.3958 15.2943C87.3272 15.2167 87.2793 15.1199 87.2703 14.9533L85.2732 15.0603C85.3043 15.6405 85.5064 16.177 85.8978 16.6194C86.2771 17.0483 86.7828 17.3313 87.3355 17.5155L87.968 15.6182ZM87.2703 14.9533C87.26 14.7607 87.3014 14.6644 87.3406 14.6063C87.3852 14.5403 87.4889 14.4342 87.7398 14.3285L86.9637 12.4852C86.4547 12.6995 85.9984 13.02 85.6829 13.4874C85.3621 13.9626 85.2435 14.5063 85.2732 15.0603L87.2703 14.9533ZM105.573 3.18684L105.525 4.18567L105.526 4.18573L105.573 3.18684ZM100.333 4.64684L101.064 5.32973L101.067 5.32661L100.333 4.64684ZM99.0732 6.90684L100.027 7.20667L100.029 7.19979L100.031 7.19288L99.0732 6.90684ZM98.5732 9.48684L99.5621 9.63518L99.5623 9.63415L98.5732 9.48684ZM98.8332 13.8668L99.8221 13.7181L99.8216 13.7148L98.8332 13.8668ZM99.6132 17.1268L100.529 16.7246L100.528 16.7241L99.6132 17.1268ZM101.553 19.2868L101.028 20.1377L101.039 20.1443L101.553 19.2868ZM104.873 20.1268L104.817 21.1253L104.822 21.1255L104.873 20.1268ZM108.433 19.4068L107.982 18.5145L107.977 18.5169L108.433 19.4068ZM110.933 16.8668L110.037 16.424L110.033 16.4304L110.03 16.4369L110.933 16.8668ZM111.713 12.4468L112.708 12.3473L112.708 12.3448L111.713 12.4468ZM111.253 8.56684L110.27 8.74777L110.27 8.748L111.253 8.56684ZM107.993 3.50684L107.677 4.45553L107.679 4.45629L107.993 3.50684ZM107.753 13.0868L106.756 13.1598L106.756 13.1607L107.753 13.0868ZM106.753 16.1668L106.206 15.3299L106.203 15.3317L106.753 16.1668ZM104.153 16.5268L104.518 15.5956L104.512 15.5935L104.153 16.5268ZM102.713 13.8468L103.711 13.7828L103.711 13.7812L102.713 13.8468ZM102.573 10.0868L101.573 10.0983L101.573 10.1047L102.573 10.0868ZM103.053 7.60684L102.227 7.0435L102.225 7.04698L103.053 7.60684ZM105.313 6.74684L105.329 5.74696L105.325 5.74691L105.313 6.74684ZM107.113 8.16684L108.048 7.81085L108.045 7.80312L108.042 7.79545L107.113 8.16684ZM107.573 10.6268L108.571 10.5539L108.569 10.5407L107.573 10.6268ZM105.622 2.18801C103.037 2.06297 100.915 2.54809 99.5997 3.96708L101.067 5.32661C101.778 4.55892 103.149 4.07071 105.525 4.18567L105.622 2.18801ZM99.6027 3.96396C98.9126 4.70218 98.4209 5.59593 98.115 6.6208L100.031 7.19288C100.259 6.43109 100.607 5.81817 101.064 5.32972L99.6027 3.96396ZM98.1192 6.60701C97.946 7.15804 97.7701 8.09066 97.5841 9.33953L99.5623 9.63415C99.7496 8.37635 99.907 7.58897 100.027 7.20667L98.1192 6.60701ZM97.5842 9.3385C97.5343 9.6716 97.5132 10.0585 97.5132 10.4868H99.5132C99.5132 10.1152 99.5321 9.83542 99.5621 9.63518L97.5842 9.3385ZM97.5132 10.4868C97.5132 11.4257 97.6278 12.6086 97.8448 14.0189L99.8216 13.7148C99.6119 12.3517 99.5132 11.2813 99.5132 10.4868H97.5132ZM97.8443 14.0156C98.0731 15.5362 98.3479 16.7342 98.6979 17.5296L100.528 16.7241C100.292 16.1862 100.047 15.2108 99.8221 13.7181L97.8443 14.0156ZM98.6977 17.5291C99.1746 18.6147 99.9681 19.4832 101.028 20.1376L102.079 18.436C101.325 17.9705 100.825 17.399 100.529 16.7246L98.6977 17.5291ZM101.039 20.1443C102.031 20.7398 103.318 21.0404 104.817 21.1252L104.93 19.1284C103.602 19.0533 102.675 18.7938 102.068 18.4293L101.039 20.1443ZM104.822 21.1255C106.288 21.2003 107.652 20.9309 108.889 20.2968L107.977 18.5169C107.081 18.9761 106.072 19.1867 104.924 19.1281L104.822 21.1255ZM108.885 20.2992C110.21 19.6285 111.205 18.6217 111.836 17.2968L110.03 16.4369C109.595 17.352 108.923 18.0385 107.982 18.5145L108.885 20.2992ZM111.83 17.3097C112.445 16.0647 112.753 14.7397 112.753 13.3468H110.753C110.753 14.434 110.515 15.4557 110.037 16.424L111.83 17.3097ZM112.753 13.3468C112.753 12.9879 112.739 12.6539 112.708 12.3473L110.718 12.5463C110.741 12.7731 110.753 13.0391 110.753 13.3468H112.753ZM112.708 12.3448C112.496 10.2801 112.339 8.9407 112.237 8.38568L110.27 8.748C110.354 9.20631 110.503 10.4536 110.718 12.5489L112.708 12.3448ZM112.237 8.38591C111.696 5.44604 110.493 3.28017 108.307 2.55739L107.679 4.45629C108.8 4.82684 109.771 6.03431 110.27 8.74777L112.237 8.38591ZM108.309 2.55816C107.688 2.35095 106.76 2.2416 105.62 2.18795L105.526 4.18573C106.653 4.23874 107.339 4.34273 107.677 4.45552L108.309 2.55816ZM106.756 13.1607C106.783 13.5213 106.793 13.7413 106.793 13.8468H108.793C108.793 13.6591 108.777 13.3724 108.75 13.013L106.756 13.1607ZM106.793 13.8468C106.793 14.7232 106.529 15.1187 106.206 15.3299L107.3 17.0038C108.364 16.3083 108.793 15.1572 108.793 13.8468H106.793ZM106.203 15.3317C105.792 15.6027 105.426 15.7068 105.093 15.7068V17.7068C105.88 17.7068 106.621 17.451 107.303 17.002L106.203 15.3317ZM105.093 15.7068C104.902 15.7068 104.712 15.6715 104.518 15.5956L103.789 17.4581C104.208 17.6222 104.645 17.7068 105.093 17.7068V15.7068ZM104.512 15.5935C104.195 15.4713 103.795 15.0927 103.711 13.7828L101.715 13.9109C101.818 15.5077 102.379 16.9157 103.794 17.4602L104.512 15.5935ZM103.711 13.7812C103.646 12.7893 103.6 11.553 103.573 10.069L101.573 10.1047C101.6 11.6073 101.647 12.8778 101.715 13.9125L103.711 13.7812ZM103.573 10.0753C103.56 8.95669 103.728 8.39426 103.882 8.1667L102.225 7.04698C101.712 7.80609 101.559 8.89699 101.573 10.0983L103.573 10.0753ZM103.879 8.17018C104.002 7.98979 104.334 7.73512 105.301 7.74677L105.325 5.74691C104.079 5.73189 102.904 6.05056 102.227 7.0435L103.879 8.17018ZM105.297 7.74671C105.51 7.75015 105.65 7.8074 105.764 7.89695C105.89 7.99617 106.043 8.18436 106.185 8.53823L108.042 7.79545C107.81 7.21598 107.477 6.70084 107.003 6.32673C106.516 5.94294 105.943 5.75686 105.329 5.74697L105.297 7.74671ZM106.179 8.52284C106.343 8.95285 106.486 9.66362 106.577 10.7129L108.569 10.5407C108.473 9.43006 108.311 8.50083 108.048 7.81085L106.179 8.52284ZM107.573 10.6268C106.576 10.6998 106.576 10.6998 106.576 10.6998C106.576 10.6998 106.576 10.6998 106.576 10.6999C106.576 10.6999 106.576 10.6999 106.576 10.6999C106.576 10.6999 106.576 10.6999 106.576 10.7C106.576 10.7001 106.576 10.7002 106.576 10.7004C106.576 10.7007 106.576 10.7008 106.576 10.7012C106.576 10.7012 106.576 10.7016 106.576 10.7017C106.576 10.7018 106.576 10.702 106.576 10.7022C106.576 10.7025 106.576 10.7045 106.576 10.7052C106.576 10.7069 106.576 10.7073 106.577 10.7094C106.577 10.7126 106.577 10.7166 106.577 10.7214C106.578 10.7225 106.578 10.724 106.578 10.7252C106.578 10.7261 106.578 10.7282 106.578 10.7292C106.578 10.7298 106.579 10.7373 106.579 10.7383C106.579 10.7387 106.579 10.7391 106.579 10.7395C106.579 10.7399 106.579 10.7403 106.579 10.7407C106.579 10.7419 106.579 10.742 106.579 10.7432C106.579 10.7434 106.579 10.7482 106.579 10.7485C106.58 10.7514 106.58 10.751 106.58 10.754C106.58 10.7545 106.58 10.755 106.58 10.7555C106.58 10.7559 106.58 10.7564 106.58 10.7569C106.58 10.7586 106.58 10.7581 106.58 10.7599C106.581 10.7756 106.581 10.769 106.582 10.7863C106.585 10.8284 106.584 10.8051 106.587 10.8536C106.59 10.8928 106.596 10.9809 106.601 11.0458C106.602 11.0626 106.604 11.0874 106.606 11.1058C106.606 11.108 106.61 11.1669 106.61 11.1707C106.61 11.172 106.613 11.2031 106.613 11.2049C106.613 11.2133 106.615 11.2316 106.615 11.2403C106.615 11.2408 106.618 11.2761 106.618 11.277C106.618 11.2776 106.621 11.3138 106.621 11.3148C106.632 11.4621 106.659 11.8338 106.677 12.0836C106.678 12.0911 106.694 12.3098 106.695 12.3238C106.699 12.3871 106.699 12.3862 106.704 12.4511C106.706 12.4789 106.707 12.4884 106.709 12.5166C106.709 12.518 106.714 12.5815 106.714 12.5833C106.714 12.5836 106.716 12.6166 106.716 12.617C106.717 12.6284 106.718 12.6396 106.719 12.6511C106.721 12.688 106.721 12.6829 106.724 12.7202C106.728 12.7725 106.73 12.808 106.734 12.8619C106.737 12.9077 106.736 12.8884 106.739 12.9346C106.739 12.9353 106.745 13.0074 106.745 13.0085C106.745 13.0093 106.747 13.0449 106.748 13.0459C106.748 13.0463 106.749 13.0642 106.749 13.0647C106.749 13.0678 106.749 13.0709 106.75 13.0741C106.75 13.0772 106.75 13.0804 106.75 13.0835C106.754 13.1381 106.752 13.1049 106.756 13.1598L108.751 13.0139C108.74 12.8666 108.739 12.8568 108.729 12.716C108.726 12.6752 108.711 12.4717 108.708 12.4373C108.697 12.2827 108.681 12.0666 108.672 11.9376C108.669 11.8971 108.671 11.9207 108.668 11.8806C108.666 11.8639 108.667 11.8691 108.666 11.8525C108.665 11.8433 108.665 11.8478 108.665 11.8386C108.664 11.8362 108.664 11.8339 108.664 11.8316C108.664 11.8293 108.664 11.827 108.664 11.8247C108.663 11.8224 108.663 11.8201 108.663 11.8178C108.663 11.8155 108.663 11.8132 108.662 11.8109C108.662 11.8038 108.662 11.8043 108.661 11.7972C108.66 11.7772 108.661 11.79 108.66 11.7701C108.657 11.741 108.658 11.7453 108.656 11.7166C108.65 11.6415 108.653 11.6868 108.648 11.6133C108.647 11.598 108.645 11.5784 108.644 11.5634C108.643 11.5473 108.644 11.555 108.643 11.539C108.642 11.5369 108.642 11.5349 108.642 11.5329C108.642 11.5309 108.642 11.5289 108.642 11.5269C108.641 11.5194 108.641 11.5223 108.641 11.5148C108.64 11.4979 108.628 11.3427 108.627 11.3322C108.627 11.3231 108.627 11.3198 108.626 11.3108C108.625 11.3051 108.626 11.3058 108.625 11.3001C108.625 11.2984 108.625 11.2966 108.625 11.2948C108.625 11.2931 108.624 11.2913 108.624 11.2896C108.624 11.2878 108.624 11.2861 108.624 11.2843C108.624 11.2826 108.624 11.2808 108.624 11.2791C108.623 11.2774 108.623 11.2756 108.623 11.2739C108.623 11.2722 108.623 11.2704 108.623 11.2687C108.623 11.2658 108.622 11.2509 108.621 11.2481C108.621 11.2464 108.621 11.2447 108.621 11.243C108.621 11.2414 108.621 11.2397 108.621 11.238C108.62 11.2313 108.62 11.2345 108.62 11.2279C108.62 11.2277 108.618 11.208 108.618 11.2079C108.618 11.2011 108.616 11.1753 108.616 11.1689C108.605 11.0216 108.605 11.0215 108.596 10.8998C108.594 10.8695 108.594 10.8732 108.592 10.8445C108.59 10.8159 108.59 10.8212 108.588 10.7941C108.588 10.7898 108.588 10.7865 108.587 10.7822C108.587 10.7813 108.587 10.7803 108.587 10.7793C108.587 10.7783 108.587 10.7774 108.587 10.7764C108.587 10.7734 108.587 10.7737 108.586 10.7707C108.586 10.7697 108.586 10.7688 108.586 10.7678C108.586 10.7669 108.586 10.7659 108.586 10.765C108.586 10.7608 108.586 10.7636 108.586 10.7594C108.585 10.7518 108.585 10.756 108.585 10.7485C108.584 10.7386 108.582 10.7159 108.582 10.7076C108.578 10.6571 108.575 10.6171 108.573 10.5923C108.573 10.5919 108.573 10.5915 108.573 10.5911C108.573 10.5907 108.573 10.5903 108.573 10.5899C108.573 10.5887 108.573 10.5889 108.573 10.5876C108.573 10.5852 108.573 10.5857 108.573 10.5833C108.573 10.5831 108.573 10.5814 108.573 10.5812C108.572 10.5798 108.572 10.5806 108.572 10.5792C108.572 10.5787 108.572 10.5778 108.572 10.5773C108.572 10.577 108.572 10.5767 108.572 10.5764C108.572 10.5761 108.572 10.5758 108.572 10.5755C108.572 10.5703 108.572 10.5737 108.572 10.5689C108.572 10.5686 108.571 10.5662 108.571 10.566C108.571 10.5636 108.571 10.5658 108.571 10.5635C108.571 10.5629 108.571 10.5617 108.571 10.5612C108.571 10.561 108.571 10.5594 108.571 10.5593C108.571 10.559 108.571 10.5586 108.571 10.5584C108.571 10.5581 108.571 10.5579 108.571 10.5576C108.571 10.5575 108.571 10.5574 108.571 10.5573C108.571 10.5571 108.571 10.557 108.571 10.5569C108.571 10.5569 108.571 10.5563 108.571 10.5563C108.571 10.5554 108.571 10.555 108.571 10.5545C108.571 10.5544 108.571 10.5544 108.571 10.5543C108.571 10.5543 108.571 10.5542 108.571 10.5542C108.571 10.5541 108.571 10.5541 108.571 10.554C108.571 10.554 108.571 10.5539 108.571 10.5539C108.571 10.5539 108.571 10.5539 108.571 10.5539C108.571 10.5539 108.571 10.5539 107.573 10.6268ZM127.754 8.20684L128.498 8.87521L128.5 8.87246L127.754 8.20684ZM124.174 12.2668L123.411 11.6209L122.824 12.3143L123.458 12.9648L124.174 12.2668ZM126.394 14.6068L127.14 13.9403L127.139 13.94L126.394 14.6068ZM128.274 17.2268L129.231 16.9357L129.219 16.8986L129.205 16.8624L128.274 17.2268ZM128.294 18.4268L127.307 18.2668L127.306 18.2761L127.304 18.2854L128.294 18.4268ZM127.134 19.6868L126.667 18.8026L126.655 18.8089L127.134 19.6868ZM125.194 19.4068L125.901 18.6997L125.901 18.6997L125.194 19.4068ZM121.714 15.0468L122.514 14.4461L121.709 13.3752L120.911 14.4512L121.714 15.0468ZM119.074 18.6068L119.874 19.2068L119.877 19.2025L119.074 18.6068ZM117.154 19.8268L117.228 20.8241L117.237 20.8234L117.246 20.8226L117.154 19.8268ZM115.474 18.6668L114.572 19.0983L114.574 19.1024L115.474 18.6668ZM115.894 16.0668L115.093 15.4685L115.092 15.4698L115.894 16.0668ZM119.374 12.2268L120.075 12.9401L120.784 12.243L120.091 11.5298L119.374 12.2268ZM115.494 7.10684L114.635 7.6193L114.637 7.62219L115.494 7.10684ZM115.234 3.64684L115.982 4.31122L115.987 4.30534L115.234 3.64684ZM117.594 3.06684L117.147 3.96129L117.154 3.96463L117.594 3.06684ZM120.054 6.00684L120.927 5.51869L120.923 5.51236L120.92 5.50609L120.054 6.00684ZM122.014 9.52684L121.14 10.0125L121.883 11.3494L122.81 10.1329L122.014 9.52684ZM124.254 6.58684L123.459 5.9803L123.459 5.9808L124.254 6.58684ZM126.734 4.02684L127.261 4.87675L127.264 4.87484L126.734 4.02684ZM128.734 4.66684L129.525 4.05537L129.52 4.04902L128.734 4.66684ZM127.01 7.53847C125.356 9.37936 124.154 10.7421 123.411 11.6209L124.938 12.9128C125.661 12.0583 126.845 10.7143 128.498 8.87521L127.01 7.53847ZM123.458 12.9648C124.483 14.0168 125.211 14.7839 125.649 15.2736L127.139 13.94C126.671 13.4164 125.918 12.6235 124.89 11.5689L123.458 12.9648ZM125.649 15.2734C126.659 16.4038 127.174 17.1609 127.343 17.5912L129.205 16.8624C128.894 16.0662 128.155 15.0765 127.14 13.9403L125.649 15.2734ZM127.317 17.518C127.348 17.6195 127.375 17.8483 127.307 18.2668L129.281 18.5869C129.373 18.0187 129.387 17.4475 129.231 16.9357L127.317 17.518ZM127.304 18.2854C127.304 18.2867 127.303 18.2948 127.294 18.3129C127.284 18.3322 127.262 18.3667 127.218 18.4145C127.126 18.5146 126.957 18.6495 126.667 18.8026L127.601 20.571C128.396 20.151 129.148 19.5203 129.284 18.5683L127.304 18.2854ZM126.655 18.8089C126.464 18.9135 126.355 18.9268 126.314 18.9268V20.9268C126.78 20.9268 127.218 20.7802 127.613 20.5647L126.655 18.8089ZM126.314 18.9268C126.237 18.9268 126.105 18.9039 125.901 18.6997L124.487 20.1139C124.976 20.6032 125.591 20.9268 126.314 20.9268V18.9268ZM125.901 18.6997C125.415 18.2139 124.301 16.8255 122.514 14.4461L120.915 15.6476C122.673 17.9882 123.879 19.5064 124.487 20.1139L125.901 18.6997ZM120.911 14.4512L118.271 18.0112L119.877 19.2025L122.517 15.6425L120.911 14.4512ZM118.274 18.0068C117.831 18.5973 117.424 18.7976 117.062 18.8311L117.246 20.8226C118.324 20.7228 119.197 20.1097 119.874 19.2068L118.274 18.0068ZM117.08 18.8296C116.933 18.8405 116.843 18.8093 116.762 18.7539C116.666 18.6873 116.524 18.5413 116.374 18.2313L114.574 19.1024C114.824 19.6191 115.162 20.0797 115.626 20.3997C116.106 20.731 116.655 20.8665 117.228 20.8241L117.08 18.8296ZM116.376 18.2354C116.29 18.0548 116.254 17.8883 116.254 17.7268H114.254C114.254 18.2054 114.365 18.6655 114.572 19.0983L116.376 18.2354ZM116.254 17.7268C116.254 17.4712 116.355 17.1227 116.696 16.6639L115.092 15.4698C114.58 16.1576 114.254 16.9158 114.254 17.7268H116.254ZM116.695 16.6652C117.439 15.6701 118.558 14.4305 120.075 12.9401L118.673 11.5136C117.123 13.0366 115.923 14.357 115.093 15.4685L116.695 16.6652ZM120.091 11.5298C118.752 10.1521 117.504 8.50845 116.351 6.59149L114.637 7.62219C115.858 9.65189 117.197 11.4216 118.657 12.9239L120.091 11.5298ZM116.353 6.59438C115.904 5.84219 115.754 5.30471 115.754 4.94684H113.754C113.754 5.81564 114.098 6.71816 114.635 7.6193L116.353 6.59438ZM115.754 4.94684C115.754 4.6712 115.833 4.47803 115.982 4.3112L114.487 2.98248C113.995 3.53565 113.754 4.20915 113.754 4.94684H115.754ZM115.987 4.30534C116.329 3.91361 116.576 3.84684 116.734 3.84684V1.84684C115.825 1.84684 115.072 2.3134 114.482 2.98834L115.987 4.30534ZM116.734 3.84684C116.834 3.84684 116.969 3.87217 117.147 3.96127L118.041 2.17241C117.633 1.96818 117.194 1.84684 116.734 1.84684V3.84684ZM117.154 3.96463C117.327 4.04975 117.603 4.26194 117.972 4.70356C118.333 5.13451 118.739 5.73027 119.189 6.50759L120.92 5.50609C120.436 4.67008 119.965 3.96917 119.506 3.42012C119.056 2.88174 118.568 2.4306 118.035 2.16905L117.154 3.96463ZM119.181 6.49499C119.621 7.28036 120.273 8.45268 121.14 10.0125L122.888 9.0412C122.021 7.481 121.368 6.30665 120.927 5.51869L119.181 6.49499ZM122.81 10.1329L125.05 7.19288L123.459 5.9808L121.219 8.9208L122.81 10.1329ZM125.049 7.19338C126.024 5.91556 126.759 5.1881 127.261 4.87674L126.207 3.17694C125.376 3.69225 124.458 4.67146 123.459 5.9803L125.049 7.19338ZM127.264 4.87484C127.337 4.82957 127.375 4.82684 127.394 4.82684V2.82684C126.96 2.82684 126.558 2.95744 126.204 3.17884L127.264 4.87484ZM127.394 4.82684C127.399 4.82684 127.588 4.827 127.948 5.28466L129.52 4.04902C129 3.38668 128.296 2.82684 127.394 2.82684V4.82684ZM127.943 5.27829C128.039 5.40213 128.074 5.51513 128.074 5.64684H130.074C130.074 5.05855 129.883 4.51822 129.525 4.05539L127.943 5.27829ZM128.074 5.64684C128.074 5.98541 127.846 6.60137 127.008 7.54123L128.5 8.87246C129.422 7.83898 130.074 6.74827 130.074 5.64684H128.074Z" fill="black"/>
</g>
<defs>
<filter id="filter0_d_36_163" x="0.242554" y="0.346848" width="130.603" height="21.9119" filterUnits="userSpaceOnUse" color-interpolation-filters="sRGB">
<feFlood flood-opacity="0" result="BackgroundImageFix"/>
<feColorMatrix in="SourceAlpha" type="matrix" values="0 0 0 0 0 0 0 0 0 0 0 0 0 0 0 0 0 0 127 0" result="hardAlpha"/>
<feOffset dx="1.77193" dy="1.77193"/>
<feComposite in2="hardAlpha" operator="out"/>
<feColorMatrix type="matrix" values="0 0 0 0 0 0 0 0 0 0 0 0 0 0 0 0 0 0 1 0"/>
<feBlend mode="normal" in2="BackgroundImageFix" result="effect1_dropShadow_36_163"/>
<feBlend mode="normal" in="SourceGraphic" in2="effect1_dropShadow_36_163" result="shape"/>
</filter>
</defs>
</svg>
